<?xml version="1.0" encoding="utf-8"?>
<!-- Generator: Adobe Illustrator 27.5.0, SVG Export Plug-In . SVG Version: 6.00 Build 0)  -->
<svg version="1.1" xmlns="http://www.w3.org/2000/svg" xmlns:xlink="http://www.w3.org/1999/xlink" x="0px" y="0px"
	 viewBox="0 0 500 500" style="enable-background:new 0 0 500 500;" xml:space="preserve">
<g id="BACKGROUND">
	<rect style="fill:#DBFFDE;" width="500" height="500"/>
	<ellipse style="opacity:0.15;fill:#0C7475;" cx="250" cy="441.795" rx="166.487" ry="11.627"/>
</g>
<g id="OBJECTS">
	<g>
		<g>
			<g>
				<path style="fill:#895425;" d="M244.65,136.603l-2.306-3.882c7.462-4.43,16.615-4.892,24.482-1.237l0.705,0.328l-1.9,4.094
					l-0.707-0.328C258.409,132.553,250.828,132.935,244.65,136.603z"/>
			</g>
			<path style="opacity:0.15;fill:#351B0A;" d="M244.65,136.603c1.635-0.971,3.37-1.704,5.156-2.212
				c-0.042-1.568-0.344-3.132-0.958-4.416c-2.254,0.615-4.445,1.524-6.504,2.747L244.65,136.603z"/>
			<path style="opacity:0.15;fill:#351B0A;" d="M264.495,135.141c-1.765-0.708-3.592-1.166-5.435-1.393
				c-0.2-1.555-0.142-3.147,0.267-4.511c2.322,0.261,4.626,0.822,6.849,1.714L264.495,135.141z"/>
		</g>
		<g>
			<g style="opacity:0.22;">
				<g>
					<path style="fill:#895425;" d="M184.931,133.856c18.891,2.981,45.04,6.927,63.601,10.027
						c14.882,2.683,30.391,4.377,44.868,8.919c7.242,3.302,3.616,15.53,1.948,21.389c-1.558,4.605-8.361,2.509-7.045-2.178
						c1.274-2.432,2.922-4.952,3.638-7.689c0.641-2.292,1.336-5.205-0.087-7.138c-0.963-0.513-3.2-1.246-4.756-1.683
						c-23.232-6.168-47.058-10.261-70.705-14.635c-10.56-1.866-21.131-3.686-31.719-5.369c-0.454-0.072-0.764-0.497-0.692-0.951
						C184.053,134.095,184.477,133.785,184.931,133.856L184.931,133.856z"/>
					<path style="opacity:0.15;fill:#351B0A;" d="M293.4,156.034c-4.965-6.111-89.229-18.335-109.406-21.185
						c0.069,0.327,0.329,0.595,0.679,0.651c10.589,1.683,21.16,3.503,31.719,5.369c23.647,4.375,47.473,8.468,70.706,14.635
						c1.556,0.437,3.793,1.17,4.756,1.683c1.423,1.933,0.728,4.846,0.087,7.138c-0.716,2.737-2.364,5.257-3.638,7.689
						c-0.533,1.898,0.274,3.359,1.516,4.134C292.834,170.793,297.389,160.944,293.4,156.034z"/>
				</g>
				<g>
					<path style="fill:#895425;" d="M323.637,133.856c-18.891,2.981-45.04,6.927-63.601,10.027
						c-14.882,2.683-30.391,4.377-44.868,8.919c-7.242,3.302-3.616,15.53-1.948,21.389c1.558,4.605,8.361,2.509,7.045-2.178
						c-1.274-2.432-2.922-4.952-3.638-7.689c-0.641-2.292-1.336-5.205,0.087-7.138c0.963-0.513,3.2-1.246,4.756-1.683
						c23.232-6.168,47.059-10.261,70.705-14.635c10.56-1.866,21.131-3.686,31.719-5.369c0.454-0.072,0.764-0.497,0.692-0.951
						C324.516,134.095,324.091,133.785,323.637,133.856L323.637,133.856z"/>
					<path style="opacity:0.15;fill:#351B0A;" d="M215.168,156.034c4.965-6.111,89.229-18.335,109.406-21.185
						c-0.069,0.327-0.329,0.595-0.679,0.651c-10.589,1.683-21.16,3.503-31.719,5.369c-23.647,4.375-47.473,8.468-70.705,14.635
						c-1.556,0.437-3.793,1.17-4.756,1.683c-1.423,1.933-0.728,4.846-0.087,7.138c0.716,2.737,2.364,5.257,3.638,7.689
						c0.533,1.898-0.274,3.359-1.516,4.134C215.735,170.793,211.18,160.944,215.168,156.034z"/>
				</g>
			</g>
			<g>
				
					<ellipse transform="matrix(0.9267 -0.3758 0.3758 0.9267 -37.7668 91.2016)" style="opacity:0.13;fill:#2DAAE2;" cx="214.928" cy="142.423" rx="29.049" ry="29.049"/>
				<linearGradient id="SVGID_1_" gradientUnits="userSpaceOnUse" x1="200.819" y1="116.4204" x2="207.2664" y2="138.4172">
					<stop  offset="0" style="stop-color:#FFFFFF"/>
					<stop  offset="1" style="stop-color:#FFFFFF;stop-opacity:0"/>
				</linearGradient>
				<path style="fill:url(#SVGID_1_);" d="M217.648,113.504l-31.624,26.002c-0.096,0.959-0.146,1.932-0.146,2.916
					c0,1.581,0.131,3.13,0.374,4.643l37.637-32.277C221.895,114.142,219.806,113.705,217.648,113.504z"/>
				
					<linearGradient id="SVGID_00000093870408772992645030000008003865069104786828_" gradientUnits="userSpaceOnUse" x1="207.8912" y1="120.0665" x2="217.2709" y2="152.0679">
					<stop  offset="0" style="stop-color:#FFFFFF"/>
					<stop  offset="1" style="stop-color:#FFFFFF;stop-opacity:0"/>
				</linearGradient>
				<path style="fill:url(#SVGID_00000093870408772992645030000008003865069104786828_);" d="M193.965,162.52l45.628-35.44
					c-0.868-1.392-1.85-2.705-2.934-3.926l-10.826,2.393l4.956-7.457c-0.655-0.428-1.324-0.836-2.014-1.211l-40.806,36.362
					c0.422,1.05,0.897,2.073,1.434,3.059l10.965-5.982l-8.015,10.38C192.864,161.329,193.403,161.935,193.965,162.52z"/>
				
					<ellipse transform="matrix(0.9267 -0.3758 0.3758 0.9267 -37.7668 91.2016)" style="fill:none;stroke:#895425;stroke-width:4.5143;stroke-miterlimit:10;" cx="214.928" cy="142.423" rx="29.049" ry="29.049"/>
				<path style="opacity:0.15;fill:none;stroke:#5B371B;stroke-width:4.5143;stroke-linecap:round;stroke-miterlimit:10;" d="
					M238.193,159.821c-5.298,7.074-13.747,11.651-23.265,11.651c-9.624,0-18.156-4.68-23.442-11.889"/>
				
					<circle style="opacity:0.15;fill:none;stroke:#472A15;stroke-width:0.9235;stroke-miterlimit:10;" cx="214.928" cy="142.423" r="27.093"/>
			</g>
			<g>
				
					<ellipse transform="matrix(0.7071 -0.7071 0.7071 0.7071 -14.4012 250.0779)" style="opacity:0.24;fill:#2DAAE2;" cx="294.67" cy="142.423" rx="29.049" ry="29.049"/>
				
					<linearGradient id="SVGID_00000148658675050306652190000009868543692303639202_" gradientUnits="userSpaceOnUse" x1="280.561" y1="116.4204" x2="287.0083" y2="138.4171">
					<stop  offset="0" style="stop-color:#FFFFFF"/>
					<stop  offset="1" style="stop-color:#FFFFFF;stop-opacity:0"/>
				</linearGradient>
				<path style="fill:url(#SVGID_00000148658675050306652190000009868543692303639202_);" d="M297.39,113.504l-31.624,26.002
					c-0.096,0.959-0.146,1.932-0.146,2.916c0,1.581,0.131,3.13,0.374,4.643l37.637-32.277
					C301.637,114.142,299.548,113.705,297.39,113.504z"/>
				
					<linearGradient id="SVGID_00000119834003728447737540000006955570490746288267_" gradientUnits="userSpaceOnUse" x1="287.6331" y1="120.0666" x2="297.0128" y2="152.0679">
					<stop  offset="0" style="stop-color:#FFFFFF"/>
					<stop  offset="1" style="stop-color:#FFFFFF;stop-opacity:0"/>
				</linearGradient>
				<path style="fill:url(#SVGID_00000119834003728447737540000006955570490746288267_);" d="M273.706,162.52l45.628-35.44
					c-0.868-1.392-1.85-2.705-2.934-3.926l-10.826,2.393l4.956-7.457c-0.655-0.428-1.324-0.836-2.014-1.211l-40.806,36.362
					c0.422,1.05,0.897,2.073,1.434,3.059l10.965-5.982l-8.014,10.38C272.606,161.329,273.145,161.935,273.706,162.52z"/>
				
					<ellipse transform="matrix(0.7071 -0.7071 0.7071 0.7071 -14.4012 250.0779)" style="fill:none;stroke:#895425;stroke-width:4.5143;stroke-miterlimit:10;" cx="294.67" cy="142.423" rx="29.049" ry="29.049"/>
				<path style="opacity:0.15;fill:none;stroke:#5B371B;stroke-width:4.5143;stroke-linecap:round;stroke-miterlimit:10;" d="
					M317.935,159.821c-5.298,7.074-13.747,11.651-23.265,11.651c-9.624,0-18.156-4.68-23.442-11.889"/>
				
					<circle style="opacity:0.15;fill:none;stroke:#472A15;stroke-width:0.9235;stroke-miterlimit:10;" cx="294.67" cy="142.423" r="27.093"/>
			</g>
			<g>
				<path style="fill:#9A531B;" d="M183.927,137.887l-1.17-0.301c-1.904-0.489-3.051-2.429-2.562-4.333l0,0
					c0.489-1.904,2.429-3.051,4.333-2.562l1.17,0.3L183.927,137.887z"/>
				<path style="opacity:0.15;fill:#351B0A;" d="M184.529,130.691c-0.024-0.006-0.049-0.006-0.073-0.011l-1.84,6.854
					c0.049,0.015,0.092,0.039,0.142,0.052l1.17,0.301l1.771-6.895L184.529,130.691z"/>
			</g>
			<g>
				<path style="fill:#9A531B;" d="M325.491,137.887l1.17-0.301c1.904-0.489,3.051-2.429,2.562-4.333l0,0
					c-0.489-1.904-2.429-3.051-4.333-2.562l-1.17,0.3L325.491,137.887z"/>
				<path style="opacity:0.15;fill:#351B0A;" d="M324.889,130.691c0.025-0.006,0.049-0.006,0.073-0.011l1.84,6.854
					c-0.049,0.015-0.092,0.039-0.142,0.052l-1.17,0.301l-1.771-6.895L324.889,130.691z"/>
			</g>
		</g>
	</g>
	<g>
		<path style="fill:#8F268B;" d="M320.371,82.127c0,1.087-0.881,1.968-1.968,1.968c-1.087,0-1.968-0.881-1.968-1.968
			c0-1.087,0.881-1.968,1.968-1.968C319.49,80.159,320.371,81.04,320.371,82.127z"/>
		<path style="fill:#8F268B;" d="M94.128,176.148c0,2.297-1.862,4.16-4.159,4.16c-2.297,0-4.16-1.862-4.16-4.16
			c0-2.297,1.862-4.16,4.16-4.16C92.266,171.989,94.128,173.851,94.128,176.148z"/>
		<path style="fill:#8F268B;" d="M417.458,172.935c0,2.297-1.862,4.16-4.16,4.16c-2.297,0-4.16-1.862-4.16-4.16
			c0-2.297,1.862-4.159,4.16-4.159C415.596,168.776,417.458,170.638,417.458,172.935z"/>
		<path style="fill:#FFCC4D;" d="M109.657,328.928c0,2.297-1.862,4.159-4.16,4.159c-2.297,0-4.16-1.862-4.16-4.159
			c0-2.297,1.862-4.16,4.16-4.16C107.795,324.769,109.657,326.631,109.657,328.928z"/>
		<path style="fill:#FFCC4D;" d="M400.298,253.184c0,0.888-0.72,1.607-1.607,1.607c-0.888,0-1.607-0.72-1.607-1.607
			s0.72-1.607,1.607-1.607C399.578,251.577,400.298,252.296,400.298,253.184z"/>
		<g>
			<g>
				<path style="fill:#01A79D;" d="M354.685,88.689c-0.987-8.111,0.695-16.489,4.736-23.59l1.977,5.858l5.87-1.393
					c-3.089,5.428-4.375,11.832-3.621,18.033l-4.94-2.664L354.685,88.689z"/>
			</g>
			<path style="opacity:0.15;fill:#00495C;" d="M363.061,70.562c-0.103,0.197-0.201,0.391-0.291,0.573
				c-2.214,4.471-3.732,9.283-4.505,14.211l0.442-0.413l4.941,2.664c-0.755-6.201,0.531-12.605,3.621-18.033L363.061,70.562z"/>
		</g>
		<g>
			<g>
				<path style="fill:#FFCC4D;" d="M381.971,149.94l-0.801-5.386l-3.281-2.667c9.004-4.565,14.739-15.163,13.637-25.199l4.398,2.712
					l4.576-3.698C402.022,129.557,394.403,143.636,381.971,149.94z"/>
			</g>
			<path style="opacity:0.15;fill:#9E8622;" d="M400.499,115.701l-0.484,0.391c-1.982,7.421-5.439,14.446-10.144,20.519
				c-2.496,3.221-5.415,6.066-9.266,7.483l0.566,0.46l0.801,5.386C394.403,143.636,402.022,129.557,400.499,115.701z"/>
		</g>
		<g>
			<g>
				<path style="fill:#B44858;" d="M398.471,217.086l-1.595-4.978l-5.234-0.927c3.46-4.002,8.7-6.484,14.377-6.809
					c5.685-0.325,11.166,1.543,15.061,5.124l-5.452,1.802l-0.66,4.844c-2.108-1.938-5.189-2.948-8.432-2.756
					C403.282,213.572,400.343,214.921,398.471,217.086z"/>
			</g>
			<path style="opacity:0.15;fill:#B44858;" d="M415.492,212.293c-3.079-1.589-6.884-1.943-10.421-1.728
				c-1.717,0.104-3.439,0.315-5.079,0.836c-1.027,0.326-1.994,0.799-2.909,1.355l1.387,4.331c1.872-2.166,4.812-3.515,8.064-3.7
				c3.244-0.192,6.324,0.818,8.432,2.756L415.492,212.293z"/>
		</g>
		<g>
			<g>
				<path style="fill:#8F268B;" d="M390.052,296.873c-4.855-3.451-8.298-8.783-9.448-14.63l5.622,1.287l3.237-3.028
					c0.709,3.602,2.829,6.887,5.819,9.013l-4.715,1.948L390.052,296.873z"/>
			</g>
			<path style="opacity:0.15;fill:#00495C;" d="M390.052,296.873l0.473-4.965c-3.942-1.457-6.091-4.625-7.88-8.344
				c-0.179-0.371-0.364-0.691-0.553-0.98l-1.487-0.34C381.754,288.09,385.197,293.422,390.052,296.873z"/>
		</g>
		<g>
			<g>
				<path style="fill:#8F268B;" d="M252.978,76.806l-3.57-3.071l-5.457,2.919c0.115-6.822,3.675-13.464,9.292-17.335l0.813,5.001
					l4.31,2.434C255.159,68.964,253.044,72.91,252.978,76.806z"/>
			</g>
			<path style="opacity:0.15;fill:#00495C;" d="M249.543,73.85l3.435,2.956c0.066-3.896,2.181-7.842,5.388-10.052l-1.897-1.071
				c-1.042,0.699-2.012,1.512-2.874,2.414C251.968,69.8,250.667,71.773,249.543,73.85z"/>
		</g>
		<g>
			<g>
				<path style="fill:#B44858;" d="M160.928,106.143c-5.011-1.68-9.272-5.596-11.689-10.742c-2.417-5.147-2.708-10.926-0.8-15.856
					l3.804,3.56l4.616-0.299c-1.023,2.641-0.821,5.833,0.552,8.758c1.373,2.925,3.701,5.12,6.387,6.02l-3.721,3.325L160.928,106.143
					z"/>
			</g>
			<path style="opacity:0.15;fill:#B44858;" d="M159.263,100.211c-2.112-0.813-4.22-1.919-5.814-3.556
				c-2.142-2.2-3.71-4.966-4.782-7.829c-0.563-1.503-1.069-3.064-1.331-4.644c-0.415,3.712,0.211,7.618,1.902,11.218
				c2.417,5.147,6.678,9.063,11.689,10.742l-0.851-5.235l0.271-0.242C159.983,100.505,159.621,100.348,159.263,100.211z"/>
		</g>
		<g>
			<g>
				<path style="fill:#01A79D;" d="M94.352,139.651l3.306-3.931l-1.481-4.911c11.309,2.335,21.535,8.574,28.785,17.556l-5.086,0.556
					l-1.939,5.115C112.079,146.776,103.484,141.535,94.352,139.651z"/>
			</g>
			<path style="opacity:0.15;fill:#00495C;" d="M122.819,148.6c-0.755-0.715-1.545-1.389-2.356-2.011
				c-3.741-2.87-7.996-5.055-12.482-6.504c-4.045-1.306-8.095-1.803-12.268-2.051l-1.361,1.618
				c9.132,1.884,17.727,7.125,23.586,14.385l1.939-5.115L122.819,148.6z"/>
		</g>
		<g>
			<g>
				<path style="fill:#FFCC4D;" d="M105.979,212.942l0.361-5.688l-3.853-2.639c4.948-2.075,9.666-4.716,14.024-7.85l0.767,4.934
					l4.505,2.396C116.872,207.627,111.555,210.603,105.979,212.942z"/>
			</g>
			<path style="opacity:0.15;fill:#9E8622;" d="M121.783,204.094l-3.655-1.944c-2.914,2.449-6.631,3.911-10.423,4.211
				c-0.887,0.07-1.779,0.058-2.668,0.001l1.302,0.892l-0.361,5.688C111.555,210.603,116.872,207.627,121.783,204.094z"/>
		</g>
		<g>
			<g>
				<path style="fill:#01A79D;" d="M109.954,279.224c-6.99,0-13.915-1.863-19.985-5.438l4.383-2.778l0.198-5.001
					c5.949,3.503,13.271,4.897,20.092,3.822l-1.705,4.306l3.11,4.613C114.024,279.067,111.986,279.224,109.954,279.224z"/>
			</g>
			<path style="opacity:0.15;fill:#0C7475;" d="M116.047,278.748l-3.11-4.612l1.216-3.071c-3.478,2.501-7.875,3.625-12.166,3.431
				c-3.474-0.157-6.189-1.357-9.055-2.587l-2.964,1.878c6.07,3.575,12.996,5.438,19.985,5.438
				C111.986,279.224,114.024,279.067,116.047,278.748z"/>
		</g>
	</g>
	<g>
		<g>
			<g>
				<path style="fill:#FFFFFF;" d="M350.544,442.636H216.331c-14.352,0-25.986-11.635-25.986-25.987l0,0
					c0-14.352,11.635-25.986,25.986-25.986h134.214h0C341.865,406.901,341.865,426.399,350.544,442.636L350.544,442.636z"/>
				<path style="opacity:0.15;fill:#00495C;" d="M303.548,408.327c13.039-0.77,26.199-0.77,39.24,0
					C329.746,409.097,316.588,409.097,303.548,408.327L303.548,408.327z"/>
				<path style="opacity:0.15;fill:#00495C;" d="M302.388,430.273c9.279-0.77,15.263-0.77,24.543,0
					C317.65,431.043,311.668,431.042,302.388,430.273L302.388,430.273z"/>
				<path style="opacity:0.15;fill:#01708B;" d="M344.065,417.64h-54.174v5.912h54.584
					C344.227,421.589,344.1,419.616,344.065,417.64z"/>
				<path style="opacity:0.15;fill:#01708B;" d="M347.227,435.061h-57.336v4.928h59.343
					C348.478,438.373,347.817,436.727,347.227,435.061z"/>
				<path style="opacity:0.15;fill:#01708B;" d="M289.891,398.368v1.741h56.684c0.184-0.585,0.403-1.161,0.607-1.741H289.891z"/>
			</g>
			<path style="fill:#8EAF47;" d="M298.12,393.507h56.591v-2.843h-55.098h-3.704H154.693c-11.813,0-14.578,13.191-15.279,21.388
				v9.196c0.609,7.702,3.466,21.389,15.279,21.389h141.217v0.115h58.802v-2.843h-56.534
				C290.632,425.361,290.614,408.068,298.12,393.507z"/>
			<rect x="172.922" y="405.194" style="fill:#01708B;" width="95.846" height="22.912"/>
			<path style="fill:#01708B;" d="M149.831,391.546v50.18c1.423,0.582,3.035,0.911,4.861,0.911h2.778v-51.973h-2.778
				C152.863,390.663,151.252,390.981,149.831,391.546z"/>
			<rect x="162.448" y="390.663" style="fill:#01708B;" width="4.746" height="51.973"/>
			<rect x="274.496" y="390.663" style="fill:#01708B;" width="7.639" height="51.973"/>
			<path style="opacity:0.15;fill:#00495C;" d="M354.711,442.751v-2.843h-56.534c-1.396-2.69-2.53-5.476-3.411-8.32H141.469
				c2.042,5.815,5.92,11.048,13.224,11.048h141.217v0.115H354.711z"/>
			<path style="opacity:0.2;fill:#FFFFFF;" d="M354.711,393.507v-2.843h-55.098h-3.704H154.693c-5.944,0-9.596,3.341-11.848,7.704
				h153.105c0.64-1.647,1.352-3.273,2.171-4.861H354.711z"/>
		</g>
		<g>
			<path style="fill:#FFCC4D;" d="M331.331,348.581c-1.648,0.257-3.5-0.414-4.261-1.953c-1.518-3.072-4.066-5.532-5.044-8.894
				c-1.576-5.411,3.096-8.35,7.915-8.199c0.461,0.014,0.869,0.106,1.25,0.232c0.167-0.507,0.332-0.978,0.489-1.395
				c0.406-1.082-0.39-2.231-1.546-2.231H146.09c-3.687,0-6.676,2.989-6.676,6.676v11.816c0,3.687,2.989,6.676,6.676,6.676h183.906
				c1.202,0,1.992-1.237,1.504-2.335C331.445,348.85,331.388,348.712,331.331,348.581z"/>
			<path style="fill:#FFFFFF;" d="M329.362,339.724c0.064-4.098,1.188-8.185,2.118-10.796h-72.289c-5.922,0-10.74,4.394-10.74,9.795
				c0,5.402,4.818,9.797,10.74,9.797h72.116C330.37,346.318,329.31,343.076,329.362,339.724z"/>
			<path style="opacity:0.15;fill:#00495C;" d="M260.603,339.971c9.279-0.77,15.263-0.77,24.543,0
				C275.864,340.741,269.882,340.741,260.603,339.971L260.603,339.971z"/>
			<rect x="151.22" y="326.14" style="fill:#8EAF47;" width="4.862" height="25.169"/>
			<rect x="235.089" y="326.14" style="fill:#8EAF47;" width="4.862" height="25.169"/>
			<rect x="160.003" y="326.14" style="fill:#FFFFFF;" width="2.431" height="25.169"/>
			<path style="fill:#FFFFFF;" d="M146.4,338.724c0-3.827-3.078-6.931-6.893-6.982c-0.057,0.35-0.094,0.707-0.094,1.074v11.816
				c0,0.366,0.037,0.724,0.094,1.074C143.322,345.655,146.4,342.551,146.4,338.724z"/>
			<path style="opacity:0.15;fill:#00495C;" d="M146.09,351.309h1.645c0,0,0-0.001-0.001-0.001c-2.51-3.58-5.682-6.986-6.412-11.297
				c-0.528-3.115,0.399-6.359,2.22-8.905c0.772-1.079,5.205-3.947,5.038-4.865c-0.007-0.036-0.021-0.067-0.03-0.101h-2.461
				c-3.687,0-6.676,2.989-6.676,6.676v11.816C139.414,348.32,142.403,351.309,146.09,351.309z"/>
			<path style="opacity:0.15;fill:#9E8622;" d="M146.09,351.309h183.906c1.202,0,1.992-1.237,1.504-2.335
				c-0.399-0.898-0.835-2.017-1.212-3.263H139.508C140.025,348.884,142.771,351.309,146.09,351.309z"/>
			<path style="opacity:0.15;fill:#00495C;" d="M287.969,334.473c13.039-0.77,26.199-0.77,39.24,0
				C314.167,335.243,301.009,335.242,287.969,334.473L287.969,334.473z"/>
			<path style="opacity:0.71;fill:#FFFFFF;" d="M329.94,329.534c0.461,0.014,0.869,0.106,1.25,0.232
				c0.167-0.507,0.332-0.978,0.489-1.395c0.406-1.082-0.39-2.231-1.546-2.231H146.09c-3.321,0-6.067,2.427-6.582,5.603h183.884
				C324.96,330.226,327.425,329.456,329.94,329.534z"/>
		</g>
		<g>
			<path style="fill:#FFFFFF;" d="M156.241,199.952c0,0,8.16,10.07,0,22.224l54.931-1.042l-0.582-21.182H156.241z"/>
			<path style="fill:#8F268B;" d="M154.096,220.328c0.553-0.479,1.396-0.235,3.187-0.235c2.71,0,30.964,0.586,36.983-0.521
				c10.345-1.903,9.032-17.039-2.315-17.616c-6.604-0.336-29.641-0.385-36.248-0.272c-0.866,0.015-1.636-0.525-1.944-1.349
				c-0.406-1.082,0.39-2.231,1.546-2.231h136.152c3.687,0,6.676,2.989,6.676,6.677v11.815c0,3.688-2.99,6.677-6.677,6.677h-14.29
				c-11.483,0-22.967,0-34.45,0c-14.247,0-28.494,0-42.74,0c-13.892,0-27.784,0.001-41.676,0c0.695,0,1.391-0.006,2.086-0.008
				c-1.945,0.006-4.943,0.215-5.793-0.24C153.376,222.375,153.514,220.832,154.096,220.328z"/>
			<path style="opacity:0.15;fill:#00495C;" d="M194.499,206.313c-9.279-0.77-15.263-0.77-24.543,0
				C179.238,207.083,185.22,207.082,194.499,206.313L194.499,206.313z"/>
			<path style="opacity:0.15;fill:#00495C;" d="M182.393,214.565c-9.279-0.77-10.903-0.77-20.183,0
				C171.49,215.335,173.113,215.335,182.393,214.565L182.393,214.565z"/>
			<path style="opacity:0.15;fill:#00495C;" d="M195.951,211.064c-5.482-0.77-6.441-0.77-11.924,0
				C189.511,211.834,190.469,211.834,195.951,211.064L195.951,211.064z"/>
			<rect x="281.464" y="198.104" style="fill:#FFCC4D;" width="4.862" height="25.169"/>
			<rect x="224.638" y="198.104" style="fill:#FFCC4D;" width="4.862" height="25.169"/>
			<rect x="232.886" y="198.104" style="fill:#FFCC4D;" width="3.54" height="25.169"/>
			<rect x="276.327" y="198.104" style="fill:#FFFFFF;" width="2.431" height="25.169"/>
			<rect x="289.356" y="198.104" style="fill:#FFFFFF;" width="2.431" height="25.169"/>
			<path style="opacity:0.15;fill:#00495C;" d="M291.456,223.273h-1.645c0,0,0-0.001,0.001-0.001
				c2.51-3.58,5.682-6.986,6.412-11.297c0.528-3.115-0.399-6.359-2.22-8.905c-0.772-1.079-5.205-3.946-5.038-4.865
				c0.007-0.036,0.021-0.067,0.03-0.101h2.461c3.687,0,6.676,2.989,6.676,6.677v11.816
				C298.132,220.284,295.143,223.273,291.456,223.273z"/>
			<path style="opacity:0.15;fill:#00495C;" d="M198.428,217.675c-1.078,0.906-2.459,1.583-4.162,1.897
				c-6.019,1.107-34.272,0.521-36.983,0.521c-1.791,0-2.633-0.244-3.187,0.235c-0.582,0.504-0.72,2.047,0.496,2.697
				c0.254,0.135,0.712,0.208,1.263,0.248h3.868c0.005,0,0.01,0,0.015,0c6.466,0,12.933,0,19.399,0h112.322
				c3.318-0.002,6.062-2.426,6.578-5.598H198.428z"/>
		</g>
		<g>
			<path style="fill:#0C7475;" d="M172.63,257.565c1.648,0.392,3.5-0.633,4.261-2.983c1.518-4.69,4.066-8.445,5.044-13.578
				c1.576-8.262-3.096-12.748-7.915-12.518c-0.461,0.022-0.869,0.162-1.25,0.353c-0.167-0.773-0.333-1.493-0.489-2.13
				c-0.406-1.652,0.39-3.406,1.546-3.406h184.044c3.687,0,6.677,4.564,6.677,10.193v18.04c0,5.63-2.989,10.193-6.677,10.193H173.965
				c-1.202,0-1.992-1.888-1.504-3.565C172.517,257.976,172.574,257.766,172.63,257.565z"/>
			<path style="fill:#FFFFFF;" d="M174.599,244.044c-0.064-6.257-1.188-12.496-2.119-16.482h72.289
				c5.922,0,10.74,6.708,10.74,14.954c0,8.247-4.817,14.957-10.74,14.957h-72.116C173.591,254.111,174.651,249.161,174.599,244.044z
				"/>
			<path style="opacity:0.15;fill:#00495C;" d="M243.358,244.42c-9.279-1.175-15.262-1.176-24.543,0
				C228.097,245.596,234.079,245.595,243.358,244.42L243.358,244.42z"/>
			<rect x="347.879" y="223.304" style="fill:#8EAF47;" width="4.862" height="38.426"/>
			<rect x="264.01" y="223.304" style="fill:#8EAF47;" width="4.862" height="38.426"/>
			<rect x="341.527" y="223.304" style="fill:#FFFFFF;" width="2.431" height="38.426"/>
			<path style="opacity:0.15;fill:#00495C;" d="M357.871,261.73H173.965c-1.202,0-1.992-1.888-1.504-3.565
				c0.399-1.37,0.835-3.079,1.212-4.981h190.779C363.936,258.028,361.19,261.73,357.871,261.73z"/>
			<path style="opacity:0.15;fill:#00495C;" d="M215.992,236.026c-13.039-1.175-26.199-1.176-39.24,0
				C189.794,237.202,202.952,237.201,215.992,236.026L215.992,236.026z"/>
		</g>
		<g>
			<rect x="164.821" y="283.53" style="fill:#01A79D;" width="149.839" height="42.609"/>
			<rect x="171.361" y="288.688" style="fill:#0C7475;" width="41.851" height="34.378"/>
			<rect x="303.548" y="283.53" style="fill:#0C7475;" width="5.189" height="42.609"/>
			<rect x="164.821" y="283.53" style="fill:#0C7475;" width="2.373" height="42.609"/>
			<rect x="312.287" y="283.53" style="fill:#0C7475;" width="2.373" height="42.609"/>
			<rect x="164.821" y="322.801" style="opacity:0.15;fill:#0C7475;" width="149.839" height="3.339"/>
			<rect x="164.821" y="284.115" style="opacity:0.2;fill:#FFFFFF;" width="149.839" height="4.573"/>
		</g>
		<path style="fill:#2DAAE2;" d="M326.038,283.53H153.864c-3.852,0-6.975-3.123-6.975-6.975v-8.969c0-3.852,3.123-6.975,6.975-6.975
			h172.174c3.852,0,6.975,3.123,6.975,6.975v8.969C333.014,280.408,329.891,283.53,326.038,283.53z"/>
		<g style="opacity:0.15;">
			<g>
				<path style="fill:#1B4E6B;" d="M157.822,265.274c0.773,4.889,0.779,9.795,0,14.684
					C157.043,275.069,157.049,270.163,157.822,265.274L157.822,265.274z"/>
				<path style="fill:#1B4E6B;" d="M164.42,265.274c0.773,4.889,0.779,9.795,0,14.684
					C163.641,275.069,163.647,270.163,164.42,265.274L164.42,265.274z"/>
			</g>
			<g>
				<path style="fill:#1B4E6B;" d="M171.712,265.274c0.773,4.889,0.779,9.795,0,14.684
					C170.933,275.069,170.939,270.163,171.712,265.274L171.712,265.274z"/>
				<path style="fill:#1B4E6B;" d="M178.31,265.274c0.773,4.889,0.779,9.795,0,14.684
					C177.531,275.069,177.537,270.163,178.31,265.274L178.31,265.274z"/>
			</g>
			<g>
				<path style="fill:#1B4E6B;" d="M185.602,265.274c0.773,4.889,0.779,9.795,0,14.684
					C184.823,275.069,184.829,270.163,185.602,265.274L185.602,265.274z"/>
				<path style="fill:#1B4E6B;" d="M192.2,265.274c0.773,4.889,0.779,9.795,0,14.684C191.421,275.069,191.427,270.163,192.2,265.274
					L192.2,265.274z"/>
			</g>
			<g>
				<path style="fill:#1B4E6B;" d="M199.492,265.274c0.773,4.889,0.779,9.795,0,14.684
					C198.713,275.069,198.72,270.163,199.492,265.274L199.492,265.274z"/>
				<path style="fill:#1B4E6B;" d="M206.09,265.274c0.773,4.889,0.779,9.795,0,14.684
					C205.311,275.069,205.317,270.163,206.09,265.274L206.09,265.274z"/>
			</g>
			<g>
				<path style="fill:#1B4E6B;" d="M213.382,265.274c0.773,4.889,0.779,9.795,0,14.684
					C212.603,275.069,212.61,270.163,213.382,265.274L213.382,265.274z"/>
				<path style="fill:#1B4E6B;" d="M219.98,265.274c0.773,4.889,0.779,9.795,0,14.684
					C219.201,275.069,219.207,270.163,219.98,265.274L219.98,265.274z"/>
			</g>
			<g>
				<path style="fill:#1B4E6B;" d="M227.273,265.274c0.773,4.889,0.779,9.795,0,14.684
					C226.493,275.069,226.5,270.163,227.273,265.274L227.273,265.274z"/>
				<path style="fill:#1B4E6B;" d="M233.87,265.274c0.773,4.889,0.779,9.795,0,14.684
					C233.091,275.069,233.097,270.163,233.87,265.274L233.87,265.274z"/>
			</g>
			<g>
				<path style="fill:#1B4E6B;" d="M241.163,265.274c0.773,4.889,0.779,9.795,0,14.684
					C240.384,275.069,240.39,270.163,241.163,265.274L241.163,265.274z"/>
				<path style="fill:#1B4E6B;" d="M247.76,265.274c0.773,4.889,0.779,9.795,0,14.684
					C246.981,275.069,246.988,270.163,247.76,265.274L247.76,265.274z"/>
			</g>
			<g>
				<path style="fill:#1B4E6B;" d="M255.053,265.274c0.773,4.889,0.779,9.795,0,14.684
					C254.274,275.069,254.28,270.163,255.053,265.274L255.053,265.274z"/>
				<path style="fill:#1B4E6B;" d="M261.651,265.274c0.773,4.889,0.779,9.795,0,14.684
					C260.872,275.069,260.878,270.163,261.651,265.274L261.651,265.274z"/>
			</g>
			<g>
				<path style="fill:#1B4E6B;" d="M268.943,265.274c0.773,4.889,0.779,9.795,0,14.684
					C268.164,275.069,268.17,270.163,268.943,265.274L268.943,265.274z"/>
				<path style="fill:#1B4E6B;" d="M275.541,265.274c0.773,4.889,0.779,9.795,0,14.684
					C274.762,275.069,274.768,270.163,275.541,265.274L275.541,265.274z"/>
			</g>
			<g>
				<path style="fill:#1B4E6B;" d="M282.833,265.274c0.773,4.889,0.779,9.795,0,14.684
					C282.054,275.069,282.06,270.163,282.833,265.274L282.833,265.274z"/>
				<path style="fill:#1B4E6B;" d="M289.431,265.274c0.773,4.889,0.779,9.795,0,14.684
					C288.652,275.069,288.658,270.163,289.431,265.274L289.431,265.274z"/>
			</g>
			<g>
				<path style="fill:#1B4E6B;" d="M296.723,265.274c0.773,4.889,0.779,9.795,0,14.684
					C295.944,275.069,295.95,270.163,296.723,265.274L296.723,265.274z"/>
				<path style="fill:#1B4E6B;" d="M303.321,265.274c0.773,4.889,0.779,9.795,0,14.684
					C302.542,275.069,302.548,270.163,303.321,265.274L303.321,265.274z"/>
			</g>
			<g>
				<path style="fill:#1B4E6B;" d="M310.613,265.274c0.773,4.889,0.779,9.795,0,14.684
					C309.834,275.069,309.84,270.163,310.613,265.274L310.613,265.274z"/>
				<path style="fill:#1B4E6B;" d="M317.211,265.274c0.773,4.889,0.779,9.795,0,14.684
					C316.432,275.069,316.438,270.163,317.211,265.274L317.211,265.274z"/>
			</g>
		</g>
		<path style="opacity:0.15;fill:#01708B;" d="M333.014,276.555v-3.319c-2.652,3.26-6.051,5.328-8.166,5.328
			c-3.473,0-151.056,0-163.629,0c-7.122,0-11.698-3.787-14.329-7.072v5.062c0,3.852,3.123,6.975,6.975,6.975h172.174
			C329.891,283.53,333.014,280.408,333.014,276.555z"/>
		<g style="opacity:0.2;">
			
				<line style="fill:none;stroke:#FFFFFF;stroke-width:1.1286;stroke-miterlimit:10;" x1="274.959" y1="232.077" x2="274.959" y2="251.839"/>
			
				<line style="fill:none;stroke:#FFFFFF;stroke-width:1.1286;stroke-miterlimit:10;" x1="279.572" y1="232.077" x2="279.572" y2="251.839"/>
			
				<line style="fill:none;stroke:#FFFFFF;stroke-width:1.1286;stroke-miterlimit:10;" x1="284.186" y1="232.077" x2="284.186" y2="251.839"/>
			
				<line style="fill:none;stroke:#FFFFFF;stroke-width:1.1286;stroke-miterlimit:10;" x1="288.8" y1="232.077" x2="288.8" y2="251.839"/>
			
				<line style="fill:none;stroke:#FFFFFF;stroke-width:1.1286;stroke-miterlimit:10;" x1="293.413" y1="232.077" x2="293.413" y2="251.839"/>
			
				<line style="fill:none;stroke:#FFFFFF;stroke-width:1.1286;stroke-miterlimit:10;" x1="298.027" y1="232.077" x2="298.027" y2="251.839"/>
			
				<line style="fill:none;stroke:#FFFFFF;stroke-width:1.1286;stroke-miterlimit:10;" x1="302.641" y1="232.077" x2="302.641" y2="251.839"/>
			
				<line style="fill:none;stroke:#FFFFFF;stroke-width:1.1286;stroke-miterlimit:10;" x1="307.254" y1="232.077" x2="307.254" y2="251.839"/>
			
				<line style="fill:none;stroke:#FFFFFF;stroke-width:1.1286;stroke-miterlimit:10;" x1="311.868" y1="232.077" x2="311.868" y2="251.839"/>
			
				<line style="fill:none;stroke:#FFFFFF;stroke-width:1.1286;stroke-miterlimit:10;" x1="316.482" y1="232.077" x2="316.482" y2="251.839"/>
			
				<line style="fill:none;stroke:#FFFFFF;stroke-width:1.1286;stroke-miterlimit:10;" x1="321.095" y1="232.077" x2="321.095" y2="251.839"/>
			
				<line style="fill:none;stroke:#FFFFFF;stroke-width:1.1286;stroke-miterlimit:10;" x1="325.709" y1="232.077" x2="325.709" y2="251.839"/>
			
				<line style="fill:none;stroke:#FFFFFF;stroke-width:1.1286;stroke-miterlimit:10;" x1="330.323" y1="232.077" x2="330.323" y2="251.839"/>
			
				<line style="fill:none;stroke:#FFFFFF;stroke-width:1.1286;stroke-miterlimit:10;" x1="334.936" y1="232.077" x2="334.936" y2="251.839"/>
		</g>
		<g>
			<path style="fill:#FFCC4D;" d="M354.626,195.376c-1.648,0.257-3.5-0.414-4.261-1.954c-1.518-3.072-4.066-5.532-5.044-8.894
				c-1.575-5.411,3.096-8.35,7.915-8.199c0.461,0.014,0.869,0.106,1.25,0.231c0.167-0.507,0.333-0.978,0.489-1.395
				c0.406-1.082-0.39-2.231-1.546-2.231H169.385c-3.687,0-6.676,2.989-6.676,6.676v11.816c0,3.687,2.989,6.676,6.676,6.676h183.906
				c1.202,0,1.992-1.237,1.504-2.335C354.74,195.645,354.683,195.508,354.626,195.376z"/>
			<path style="fill:#FFFFFF;" d="M352.657,186.52c0.064-4.099,1.188-8.185,2.119-10.796h-70.504c-0.986,0-1.786,0.799-1.786,1.786
				v16.021c0,0.986,0.799,1.786,1.786,1.786h70.33C353.666,193.113,352.605,189.871,352.657,186.52z"/>
			<path style="opacity:0.15;fill:#00495C;" d="M283.898,186.766c9.279-0.77,15.263-0.77,24.543,0
				C299.16,187.536,293.178,187.536,283.898,186.766L283.898,186.766z"/>
			<path style="opacity:0.15;fill:#00495C;" d="M318.127,186.766c9.279-0.77,15.262-0.77,24.543,0
				C333.389,187.536,327.406,187.536,318.127,186.766L318.127,186.766z"/>
			<rect x="170.727" y="172.935" style="fill:#B44858;" width="4.862" height="25.169"/>
			<rect x="261.326" y="172.935" style="fill:#B44858;" width="1.92" height="25.169"/>
			<rect x="264.384" y="172.935" style="fill:#B44858;" width="1.92" height="25.169"/>
			<rect x="258.073" y="172.935" style="fill:#B44858;" width="1.92" height="25.169"/>
			<rect x="178.294" y="172.935" style="fill:#B44858;" width="2.431" height="25.169"/>
			<path style="opacity:0.15;fill:#9E8622;" d="M169.385,198.104h183.906c1.202,0,1.992-1.237,1.504-2.335
				c-0.399-0.898-0.835-2.017-1.212-3.263H162.804C163.321,195.68,166.066,198.104,169.385,198.104z"/>
			<path style="opacity:0.15;fill:#00495C;" d="M296.888,181.845c13.039-0.77,26.199-0.77,39.24,0
				C323.086,182.615,309.928,182.615,296.888,181.845L296.888,181.845z"/>
			<path style="opacity:0.71;fill:#FFFFFF;" d="M353.236,176.33c0.461,0.014,0.869,0.106,1.25,0.231
				c0.167-0.507,0.333-0.978,0.489-1.395c0.406-1.082-0.39-2.231-1.546-2.231H169.385c-3.321,0-6.067,2.427-6.582,5.603h183.884
				C348.255,177.021,350.721,176.251,353.236,176.33z"/>
			<rect x="186.41" y="178.538" style="fill:#B44858;" width="66.899" height="13.969"/>
			<rect x="248.456" y="178.498" style="opacity:0.36;fill:#B44858;" width="4.853" height="14.009"/>
		</g>
		<polygon style="opacity:0.15;fill:#00495C;" points="238.84,198.796 261.137,220.474 298.695,196.844 		"/>
		<g>
			<path style="fill:#FFFFFF;" d="M184.9,352.366c0,0-5.871,9.432-5.871,18.029c0,8.597,4.746,17.522,4.746,17.522l63.49,0.526
				l-0.103-35.57L184.9,352.366z"/>
			<path style="opacity:0.22;fill:#F4F0ED;" d="M247.223,374.072c-0.327,0.15-0.654,0.3-0.981,0.447
				c-13.259,5.964-28.471,8.614-42.481,4.729c-9.55-2.387-17.754-8.576-23.491-16.426c-0.723,2.422-1.241,5.031-1.241,7.572
				c0,8.597,4.746,17.522,4.746,17.522l63.49,0.526L247.223,374.072z"/>
			<path style="fill:#F4F0ED;" d="M247.623,351.301c0,0-5.394,9.077-5.394,18.132s4.746,18.456,4.746,18.456l63.49,0.554
				l-0.17-0.532c-3.841-12.015-3.817-24.932,0.068-36.934l0,0L247.623,351.301z"/>
			<path style="opacity:0.15;fill:#5E3619;" d="M259.953,361.352c13.039-0.77,26.199-0.77,39.24,0
				C286.15,362.122,272.992,362.122,259.953,361.352L259.953,361.352z"/>
			<path style="opacity:0.15;fill:#5E3619;" d="M191.012,373.859c8.56-0.77,17.2-0.77,25.762,0
				C208.211,374.629,199.573,374.628,191.012,373.859L191.012,373.859z"/>
			<path style="opacity:0.15;fill:#5E3619;" d="M209.35,360.197c8.56-0.77,17.2-0.77,25.762,0
				C226.55,360.967,217.911,360.967,209.35,360.197L209.35,360.197z"/>
			<path style="opacity:0.15;fill:#5E3619;" d="M245.106,370.021c13.039-0.77,26.199-0.77,39.24,0
				C271.304,370.791,258.146,370.79,245.106,370.021L245.106,370.021z"/>
			<path style="opacity:0.15;fill:#5E3619;" d="M272.874,379.664c11.533,0.681,23.159,0.757,34.715,0.234
				c-0.027-0.157-0.056-0.314-0.082-0.471C295.978,378.906,284.379,378.985,272.874,379.664z"/>
			<path style="fill:none;stroke:#895425;stroke-width:3.1249;stroke-miterlimit:10;" d="M247.278,389.278h-62.795l-1.153-2.115
				c-5.967-10.947-5.526-24.269,1.153-34.797l0,0h62.795"/>
			<g>
				<rect x="247.265" y="350.803" style="fill:#5E3619;" width="67.742" height="3.126"/>
			</g>
			<g>
				<rect x="247.352" y="387.715" style="fill:#5E3619;" width="67.743" height="3.126"/>
			</g>
		</g>
		<g>
			<polygon style="fill:#FFCC4D;" points="191.438,236.026 190.632,264.62 200.02,259.166 208.353,265.003 207.788,236.026 			"/>
			<path style="opacity:0.08;fill:#00495C;" d="M208.353,265.003l-0.428-21.967c-0.054,0.053-0.118,0.085-0.168,0.144
				c-0.495,0.578-0.709,1.337-0.945,2.061c-1.28,3.923-3.651,7.555-7.016,9.943c-2.783,1.975-5.737,2.425-8.982,2.968l-0.182,6.467
				l9.388-5.454L208.353,265.003z"/>
		</g>
		<g>
			<polygon style="opacity:0.15;fill:#2E3E4C;" points="288.945,399.375 288.945,399.375 288.945,399.375 284.691,369.443 
				263.431,372.87 263.475,374.859 263.839,391.444 263.839,391.444 264.013,399.375 264.013,399.375 264.013,399.375 
				269.625,397.267 275.237,395.16 			"/>
			<g>
				<polygon style="fill:#8F268B;" points="260.046,370.13 260.089,372.119 260.628,396.635 271.851,392.42 285.56,396.635 
					284.691,369.443 				"/>
				<path style="opacity:0.15;fill:#00495C;" d="M275.178,386.986c-3.084,1.182-6.438,1.751-9.84,1.805
					c-1.58,0.025-3.254-0.131-4.885-0.086l0.174,7.931l11.224-4.215l13.708,4.215l-0.536-16.795
					C282.659,382.909,279.219,385.437,275.178,386.986z"/>
			</g>
		</g>
	</g>
</g>
</svg>
