<?xml version="1.0" encoding="UTF-8"?>
<svg version="1.1" xmlns="http://www.w3.org/2000/svg" width="512" height="512">
<path d="M0 0 C1.04542969 -0.02900391 2.09085937 -0.05800781 3.16796875 -0.08789062 C4.67810547 -0.10045898 4.67810547 -0.10045898 6.21875 -0.11328125 C7.13591797 -0.12786377 8.05308594 -0.14244629 8.99804688 -0.1574707 C12.31037768 0.46472258 13.49590141 1.64417751 15.5 4.3125 C15.5 5.6325 15.5 6.9525 15.5 8.3125 C28.7 8.3125 41.9 8.3125 55.5 8.3125 C55.83 6.6625 56.16 5.0125 56.5 3.3125 C58.06384154 1.13742594 58.89284045 0.42493366 61.53692979 -0.06469816 C62.32431009 -0.06572729 63.1116904 -0.06675642 63.92293072 -0.06781673 C65.28823942 -0.08047665 65.28823942 -0.08047665 66.68113011 -0.09339231 C67.68247213 -0.08738227 68.68381416 -0.08137222 69.71549988 -0.07518005 C70.77822579 -0.08056559 71.84095171 -0.08595113 72.93588144 -0.09149987 C76.51490618 -0.10586482 80.0935655 -0.09865451 83.67260742 -0.09155273 C86.2314687 -0.09725196 88.79032744 -0.10421447 91.34918213 -0.11235046 C97.58995005 -0.12847817 103.83058193 -0.13037147 110.07136443 -0.12513756 C115.14512912 -0.12109911 120.21886406 -0.12253556 125.29262733 -0.12788582 C126.01428037 -0.12863424 126.7359334 -0.12938266 127.4794547 -0.13015376 C128.94546126 -0.13168523 130.4114678 -0.13322358 131.87747435 -0.13476873 C145.63563564 -0.14850655 159.39374014 -0.14304806 173.15190015 -0.13158352 C185.7334553 -0.12165914 198.31486321 -0.13457571 210.89639565 -0.15851771 C223.81484634 -0.18291547 236.73322848 -0.19251435 249.65170175 -0.18586498 C256.90441784 -0.18237305 264.1570208 -0.18460255 271.40971947 -0.20211601 C278.23299132 -0.21838782 285.05597791 -0.21364557 291.87924194 -0.19481087 C294.38341022 -0.19112042 296.88759924 -0.19424664 299.39174843 -0.20469666 C302.81135101 -0.21787679 306.23001952 -0.20638387 309.64958191 -0.18870544 C310.63977032 -0.19831045 311.62995874 -0.20791546 312.65015286 -0.21781152 C320.21568052 -0.13738832 325.38206432 1.70213524 331.1875 6.5625 C336.89001307 13.34386689 339.62905231 18.80820059 339.62025452 27.77314758 C339.62231651 29.39897514 339.62231651 29.39897514 339.62442017 31.05764771 C339.62082489 32.23656586 339.61722961 33.41548401 339.61352539 34.63012695 C339.61367142 35.87931412 339.61381744 37.12850128 339.6139679 38.4155426 C339.61339135 41.83251672 339.60838224 45.24943014 339.60139394 48.66639352 C339.59513505 52.24049974 339.59455459 55.8146068 339.59336853 59.38871765 C339.59026269 66.15300867 339.58205937 72.91728348 339.57201904 79.68156737 C339.5608347 87.38407382 339.5553416 95.08658106 339.55032361 102.78909361 C339.53987614 118.63023845 339.52229116 134.47136713 339.5 150.3125 C340.10255615 150.30017334 340.7051123 150.28784668 341.32592773 150.27514648 C342.12458252 150.26555908 342.9232373 150.25597168 343.74609375 150.24609375 C344.5342749 150.23376709 345.32245605 150.22144043 346.13452148 150.20874023 C352.91536026 150.50617614 357.88410965 153.82554437 362.73828125 158.35546875 C369.19648447 165.52965902 369.65130771 173.88853696 369.64526367 183.21630859 C369.65030159 184.35195503 369.65030159 184.35195503 369.65544128 185.51054382 C369.66487969 187.99402543 369.66689072 190.47743911 369.66796875 192.9609375 C369.67118601 194.70057197 369.67455043 196.44020617 369.67805481 198.17984009 C369.68402811 201.81944404 369.68589654 205.45902431 369.68530273 209.09863281 C369.68520115 213.74416491 369.69885715 218.38954403 369.71607494 223.0350399 C369.72723554 226.6262989 369.72922071 230.21752137 369.72869301 233.80879593 C369.72986686 235.52067212 369.73425494 237.23254945 369.74202538 238.94440842 C369.83879784 262.46277319 369.83879784 262.46277319 361.5 272.3125 C355.01673752 278.42401578 348.11340881 279.41048087 339.5 279.3125 C339.50666183 280.61826996 339.51332367 281.92403992 339.52018738 283.26937866 C339.58110499 295.59836704 339.62602381 307.92732472 339.65543652 320.25642967 C339.6710664 326.59435696 339.69225596 332.93216237 339.72631836 339.27001953 C339.75900698 345.39083676 339.77687315 351.51153703 339.78463173 357.63243484 C339.79015817 359.96311915 339.80094985 362.29379734 339.81719017 364.62443161 C339.83909042 367.89868561 339.84196162 371.17246143 339.84057617 374.44677734 C339.85675491 375.87961563 339.85675491 375.87961563 339.8732605 377.34140015 C339.83059674 386.71054987 338.04076831 394.7283396 331.47265625 401.6171875 C327.62002616 404.92816068 323.63734459 407.3125 318.5 407.3125 C318.52094727 408.44268555 318.54189453 409.57287109 318.56347656 410.73730469 C318.63592696 414.93411569 318.68181784 419.13087152 318.71972656 423.328125 C318.73983061 425.1439748 318.76711835 426.95975995 318.80175781 428.77539062 C318.85033039 431.38688105 318.87298027 433.99751498 318.890625 436.609375 C318.91127014 437.41993347 318.93191528 438.23049194 318.95318604 439.06561279 C318.95461492 442.66231859 318.81041481 444.86746391 316.72558594 447.85644531 C314.5 449.3125 314.5 449.3125 310.5 449.3125 C310.5 457.2325 310.5 465.1525 310.5 473.3125 C316.19905167 473.19437635 316.19905167 473.19437635 321.8972168 473.04223633 C326.58604008 472.99333417 329.71011422 473.22527549 333.5 476.3125 C335.07898053 479.47046107 335.31928171 482.91920636 334.5 486.3125 C332.51607943 488.91835585 330.89537396 490.97483071 327.60480249 491.77112257 C325.26401474 491.94367329 322.96951956 491.95477354 320.62260437 491.91377258 C319.72811783 491.91804471 318.83363129 491.92231683 317.9120391 491.92671841 C314.9144016 491.9349551 311.9181629 491.90745197 308.9206543 491.88012695 C306.77216118 491.87871663 304.62366566 491.87950815 302.47517395 491.88233948 C296.64073471 491.88377564 290.80680813 491.85435283 284.97248816 491.81946969 C278.87595698 491.78823991 272.77941439 491.7852781 266.68281555 491.77934265 C255.13726322 491.76379433 243.59194726 491.72275224 232.04649907 491.6725952 C218.90277297 491.61673269 205.75903566 491.58922298 192.61522043 491.56411803 C165.57668251 491.51183746 138.53835449 491.42387573 111.5 491.3125 C111.30981293 492.34969933 111.30981293 492.34969933 111.11578369 493.40785217 C110.94383484 494.3123259 110.77188599 495.21679962 110.59472656 496.14868164 C110.42668518 497.04639786 110.2586438 497.94411407 110.08551025 498.86903381 C109.37876705 501.81843242 108.34049771 503.5606274 106.25 505.75 C105.68796875 506.36746094 105.1259375 506.98492187 104.546875 507.62109375 C98.77232138 512.39281459 93.71394037 512.79825655 86.4765625 512.69921875 C82.12742775 512.27626753 78.24829921 511.2492619 74.0625 510.0625 C66.35520087 507.92984295 61.71519827 508.76464552 54.07421875 511.265625 C47.21113147 513.27579701 39.75228862 513.65059214 33.0625 510.8125 C28.86110398 508.27564012 25.53019922 504.78736817 23.5 500.3125 C23.00150888 497.32219484 22.71403913 494.33544728 22.5 491.3125 C21.14805542 491.3439209 21.14805542 491.3439209 19.76879883 491.37597656 C16.35983649 491.44497241 12.95163722 491.4946905 9.54223633 491.53222656 C8.07889958 491.55209449 6.61563951 491.57919882 5.15258789 491.61425781 C-11.52910175 492.00340186 -25.88311368 488.21442044 -38.36328125 476.60546875 C-48.9656698 465.22776843 -52.68198922 451.63003797 -52.61352539 436.43969727 C-52.61367142 435.58036087 -52.61381744 434.72102448 -52.6139679 433.83564758 C-52.61327545 431.01670745 -52.60551453 428.19783474 -52.59765625 425.37890625 C-52.59578969 423.41592953 -52.59436691 421.45295233 -52.59336853 419.48997498 C-52.58956206 414.33943379 -52.57974783 409.18892109 -52.56866455 404.03839111 C-52.55841013 398.77624904 -52.55386229 393.51410233 -52.54882812 388.25195312 C-52.53812381 377.93878961 -52.52106996 367.62564718 -52.5 357.3125 C-53.43408691 357.01843262 -54.36817383 356.72436523 -55.33056641 356.42138672 C-65.50284579 352.862421 -72.60909639 343.51754971 -77.5 334.3125 C-82.07486826 323.69986956 -82.65036816 313.44449752 -82.64526367 302.03222656 C-82.64862228 300.93988708 -82.6519809 299.84754761 -82.65544128 298.72210693 C-82.66489343 295.13243453 -82.66689153 291.54280906 -82.66796875 287.953125 C-82.67118539 285.44122295 -82.67454977 282.92932109 -82.67805481 280.41741943 C-82.68403179 275.15881041 -82.68593923 269.90021317 -82.68530273 264.64160156 C-82.68476914 259.26266519 -82.69180331 253.88380072 -82.70581055 248.50488281 C-82.72254329 241.98464278 -82.72935629 235.46446718 -82.72869301 228.94420624 C-82.729867 226.47087997 -82.73425586 223.99755293 -82.74202538 221.52423859 C-82.85511207 181.80613048 -82.85511207 181.80613048 -68.5 165.3125 C-63.46953653 160.53821754 -59.12096477 157.41359071 -52.5 155.3125 C-52.50414807 154.48922242 -52.50414807 154.48922242 -52.50837994 153.64931297 C-52.57491764 140.2336972 -52.62422263 126.81811073 -52.65543652 113.40236473 C-52.67104256 106.91433912 -52.69218794 100.42643327 -52.72631836 93.93847656 C-52.7590928 87.66851257 -52.77689102 81.39866324 -52.78463173 75.12862015 C-52.7901429 72.74542055 -52.80090422 70.3622267 -52.81719017 67.97907639 C-52.95540825 46.90082483 -52.09607148 29.6209174 -36.8515625 13.53515625 C-26.22702318 3.49302523 -14.23666211 0.1316584 0 0 Z " fill="#2F59FF" transform="translate(112.5,-0.3125)"/>
<path d="M0 0 C13.2 0 26.4 0 40 0 C40.99 1.98 41.98 3.96 43 6 C45.4063725 8.4063725 45.93431967 8.25104605 49.21735191 8.2561264 C50.10713309 8.2623585 50.99691426 8.26859059 51.9136585 8.27501154 C52.89729615 8.27171257 53.88093381 8.26841359 54.89437866 8.26501465 C55.9345711 8.26939592 56.97476354 8.27377719 58.04647696 8.27829123 C61.55495334 8.29067765 65.06328153 8.28879861 68.57177734 8.28710938 C71.07786787 8.29312936 73.58395638 8.30005252 76.09004211 8.30781555 C81.49808887 8.3227384 86.90609441 8.33168476 92.31415939 8.33552551 C100.13772532 8.3412658 107.9612208 8.35984103 115.78475566 8.38196605 C128.48279436 8.41771112 141.18083703 8.44601312 153.87890625 8.46826172 C155.01954603 8.47026421 155.01954603 8.47026421 156.18322904 8.47230715 C161.5804857 8.48173411 166.97774279 8.49089663 172.375 8.5 C178.53678418 8.51039465 184.69856812 8.52091213 190.86035156 8.53173828 C191.99869678 8.53373439 191.99869678 8.53373439 193.16003887 8.53577083 C205.80724057 8.55818971 218.45441225 8.5883808 231.10158312 8.62413073 C238.90652102 8.64581371 246.71141217 8.66042135 254.51637854 8.66596949 C260.49487968 8.67071313 266.47331166 8.68548269 272.45178795 8.70396996 C274.9076409 8.70986289 277.36350481 8.71231468 279.81936455 8.71113014 C283.1635573 8.70997668 286.50749575 8.72094194 289.85165405 8.73498535 C291.32041837 8.73003689 291.32041837 8.73003689 292.81885469 8.72498846 C294.16134969 8.7343366 294.16134969 8.7343366 295.53096581 8.7438736 C296.30299225 8.74506777 297.0750187 8.74626195 297.87043989 8.74749231 C300.34377472 9.0407623 301.89987684 9.66701132 304 11 C306.21909158 14.32863737 306.24810087 15.34450796 306.24050903 19.22013855 C306.24463303 20.84184212 306.24463303 20.84184212 306.24884033 22.49630737 C306.24164978 23.68241608 306.23445923 24.86852478 306.22705078 26.09057617 C306.22734283 27.33947128 306.22763489 28.58836639 306.22793579 29.87510681 C306.22678024 33.30053405 306.21674185 36.72572095 306.20278788 40.15110564 C306.19029513 43.73055677 306.18911117 47.31001102 306.18673706 50.88948059 C306.180518 57.66802776 306.16410144 64.4465105 306.14403808 71.22502929 C306.12169231 78.94199254 306.11068898 86.65895886 306.10064721 94.3759464 C306.07973557 110.25066826 306.04455134 126.12532583 306 142 C298.15058849 142.18570515 290.3016952 142.32767658 282.45063591 142.41449738 C278.80451525 142.45617821 275.15990163 142.51266309 271.51464844 142.60351562 C267.99373817 142.69071564 264.47427288 142.73832758 260.95236588 142.75901794 C258.96115636 142.78090411 256.97052533 142.84331731 254.98019409 142.90637207 C246.13320737 142.91075094 246.13320737 142.91075094 242.80523682 140.23608398 C239 135.3316982 239 135.3316982 239 132 C238.13858398 131.56965454 238.13858398 131.56965454 237.25976562 131.13061523 C235.84296503 130.42175573 234.43388171 129.69701406 233.03710938 128.94946289 C225.50679409 125.38128033 217.99782961 125.35596959 209.84130859 125.42358398 C207.50344036 125.43747955 205.16956521 125.40325303 202.83203125 125.36523438 C192.64555788 125.31343324 185.07916055 126.69375519 177.125 133.4375 C174.88905038 135.9700361 174.88905038 135.9700361 173.28648376 139.11581421 C171 142 171 142 167.93312073 142.73257446 C166.73130661 142.72495087 165.52949249 142.71732727 164.29125977 142.70947266 C163.62571075 142.71367722 162.96016174 142.71788177 162.27444458 142.72221375 C160.07916938 142.72991037 157.88642425 142.69635937 155.69140625 142.6640625 C154.16209874 142.66515661 152.63279044 142.66946603 151.10350037 142.67684937 C147.07900308 142.69025686 143.05539852 142.67142859 139.03100586 142.64239502 C132.59361351 142.59703213 126.15670465 142.58143887 119.7191906 142.60194016 C117.47365134 142.60156785 115.2293714 142.57582144 112.98402405 142.54824829 C111.60206108 142.54756318 110.22009715 142.54786689 108.83813477 142.54931641 C107.63552505 142.54010162 106.43291534 142.53088684 105.19386292 142.52139282 C100.76256398 143.18543243 98.43738857 145.28682309 95.61303711 148.65307617 C95.0756189 149.464823 95.0756189 149.464823 94.52734375 150.29296875 C94.10880127 150.91461914 93.69025879 151.53626953 93.2590332 152.17675781 C92.82292725 152.84030273 92.38682129 153.50384766 91.9375 154.1875 C90.9725023 155.62446961 90.00631482 157.0606408 89.0390625 158.49609375 C88.54180664 159.23714355 88.04455078 159.97819336 87.53222656 160.74169922 C85.01541271 164.4511524 82.41104766 168.09758543 79.8125 171.75 C76.30514721 176.70977898 72.80305322 181.67249991 69.375 186.6875 C68.76398438 187.57824219 68.15296875 188.46898437 67.5234375 189.38671875 C62.96980855 197.19794379 62.87834914 206.21373495 64 215 C67.29484814 226.36443382 76.49368034 236.58757693 83.48388672 245.99755859 C87 250.78595785 87 250.78595785 87 253 C86.28530705 253.00146656 85.57061411 253.00293312 84.8342638 253.00444412 C67.39645495 253.04159172 49.95885687 253.10071123 32.52120686 253.18390274 C24.08827228 253.22361177 15.65542993 253.25604539 7.22241211 253.27099609 C-0.132899 253.284055 -7.4880065 253.31112694 -14.84320289 253.35461307 C-18.7331564 253.37713323 -22.62285967 253.39291641 -26.51288414 253.39188385 C-30.18448629 253.39113159 -33.85553729 253.4093058 -37.52699661 253.44116783 C-39.49612352 253.45356825 -41.46534347 253.44664715 -43.43449402 253.43885803 C-55.19186609 253.57469019 -65.11680932 256.26102937 -74.9765625 262.73046875 C-77 264 -77 264 -80 265 C-80.06969739 254.98554452 -80.12291119 244.97114733 -80.15543652 234.95649815 C-80.17105184 230.30562802 -80.19221412 225.6549246 -80.22631836 221.00415039 C-80.25905987 216.51078097 -80.27688406 212.01757128 -80.28463173 207.52409172 C-80.2901488 205.81498642 -80.30092197 204.10588927 -80.31719017 202.39685249 C-80.43278161 189.74330539 -79.69108603 179.00570408 -71 169 C-61.97427711 161.07946767 -53.01095352 158.53988689 -41.20361328 158.61523438 C-40.16348587 158.6098616 -39.12335846 158.60448883 -38.05171204 158.59895325 C-35.80921402 158.58922039 -33.56667854 158.5862174 -31.32416153 158.58930969 C-27.77711338 158.59380474 -24.23055953 158.57974232 -20.68356323 158.56091309 C-11.88324418 158.5179927 -3.08293718 158.50685157 5.71746826 158.49468994 C13.17253326 158.48318173 20.62737045 158.45969847 28.08234024 158.41999817 C31.5806956 158.40639193 35.07874633 158.41060358 38.57711792 158.41540527 C40.71140946 158.40607023 42.84569757 158.39590283 44.97998047 158.38476562 C45.95558426 158.39091385 46.93118805 158.39706207 47.93635559 158.40339661 C48.82778763 158.39519394 49.71921967 158.38699127 50.63766479 158.37854004 C51.41226484 158.37782753 52.18686489 158.37711502 52.98493767 158.37638092 C55.56847311 157.89381846 56.42277064 157.07425732 58 155 C59.08333333 151.58333333 59.08333333 151.58333333 59 148 C57.15863826 145.58718117 55.69698174 144.34849087 53 143 C51.61925309 142.89676869 50.23376302 142.85357219 48.84921265 142.84178162 C47.97980545 142.8319928 47.11039825 142.82220398 46.21464539 142.81211853 C45.25870987 142.80636307 44.30277435 142.8006076 43.31787109 142.79467773 C42.31296127 142.78477814 41.30805145 142.77487854 40.27268982 142.76467896 C36.93962996 142.73300418 33.60655583 142.7082829 30.2734375 142.68359375 C27.96700665 142.66302939 25.66057962 142.64203306 23.35415649 142.62062073 C17.27473025 142.56534661 11.19526969 142.5159609 5.11578369 142.46777344 C-1.08430038 142.41759736 -7.28433444 142.361891 -13.484375 142.30664062 C-25.65620731 142.19899375 -37.82808298 142.09756331 -50 142 C-50.09283563 128.22169784 -50.16383411 114.44347057 -50.20724869 100.6649189 C-50.22808951 94.26640876 -50.25634364 87.86811322 -50.30175781 81.46972656 C-50.34533977 75.29054541 -50.36916346 69.1115702 -50.37950897 62.93224716 C-50.38687812 60.57921992 -50.40126824 58.22620347 -50.42292023 55.87326431 C-50.45211756 52.56777167 -50.45594908 49.26312116 -50.45410156 45.95751953 C-50.46848267 44.99294327 -50.48286377 44.028367 -50.49768066 43.03456116 C-50.43419725 32.4814894 -46.72714061 24.79670766 -39.515625 17.203125 C-32.89799205 11.40755825 -25.70006001 8.83584792 -17 9 C-16.99413376 10.26898132 -16.98826752 11.53796265 -16.98222351 12.84539795 C-16.92505553 24.79378745 -16.85232494 36.7419939 -16.76428509 48.69019699 C-16.71952302 54.83316491 -16.68027968 60.97606561 -16.65356445 67.11914062 C-16.62758986 73.04554157 -16.58722874 78.97168465 -16.53681374 84.89792633 C-16.52010547 87.16095019 -16.50861593 89.42401868 -16.50238609 91.68709564 C-16.49278819 94.8525457 -16.46478005 98.01733006 -16.43237305 101.18261719 C-16.43380814 102.12201141 -16.43524323 103.06140564 -16.4367218 104.02926636 C-16.38611972 109.00836228 -16.38611972 109.00836228 -14.60774231 113.57818604 C-12.51079031 115.43263473 -11.27815576 115.56713026 -8.5 115.5625 C-7.33984375 115.59537109 -7.33984375 115.59537109 -6.15625 115.62890625 C-3.84893612 115.16885387 -3.84893612 115.16885387 -2.39225769 113.12727356 C-0.35307095 108.54687524 -0.56058051 104.29689291 -0.56762695 99.3347168 C-0.5574353 98.2610939 -0.54724365 97.18747101 -0.53674316 96.08131409 C-0.50658041 92.53722945 -0.49734194 88.99341496 -0.48828125 85.44921875 C-0.47143705 82.99012857 -0.45328717 80.53104702 -0.43388367 78.07197571 C-0.38634971 71.6029632 -0.3565621 65.13398566 -0.33044434 58.66485596 C-0.30065612 52.06230768 -0.25411977 45.45987992 -0.20898438 38.85742188 C-0.12291239 25.90499703 -0.05713215 12.95258487 0 0 Z " fill="#D0E6FF" transform="translate(128,8)"/>
<path d="M0 0 C1.30710937 -0.00644531 2.61421875 -0.01289063 3.9609375 -0.01953125 C4.63479492 -0.00905762 5.30865234 0.00141602 6.00292969 0.01220703 C8.0585154 0.03901054 10.10864433 0.01241571 12.1640625 -0.01953125 C23.18348905 0.03480517 23.18348905 0.03480517 26.9140625 2.87109375 C29.1216403 5.74094489 29.963565 7.42205003 30.4375 10.9765625 C30.63472656 12.30107422 30.63472656 12.30107422 30.8359375 13.65234375 C30.94808594 14.64814453 30.94808594 14.64814453 31.0625 15.6640625 C35.07933292 17.00300681 38.9477586 16.80842748 43.13623047 16.8059082 C44.52935455 16.81111984 44.52935455 16.81111984 45.95062256 16.81643677 C47.96896643 16.8237922 49.98731838 16.82913872 52.00567245 16.83272743 C55.19982226 16.83988889 58.3938181 16.85555263 61.58792114 16.87406921 C70.67008368 16.9265577 79.75216165 16.97453098 88.83447266 16.98999023 C94.38831418 17.00006404 99.94176818 17.02937236 105.4954567 17.07131004 C107.6125203 17.08363234 109.72963861 17.08873907 111.84673691 17.08651161 C114.80823981 17.08416222 117.76862806 17.10629752 120.72998047 17.1340332 C121.60496185 17.12743179 122.47994324 17.12083038 123.38143921 17.11402893 C127.47063929 17.17694752 129.54838838 17.33931546 133.08328247 19.57218933 C136.58486109 23.27307529 136.21641128 26.48292237 136.22363281 31.33911133 C136.22859772 32.1311647 136.23356262 32.92321808 136.23867798 33.73927307 C136.25331456 36.36655539 136.26010448 38.99377731 136.265625 41.62109375 C136.27137572 43.44471743 136.27713347 45.26834109 136.28289795 47.09196472 C136.29341254 50.91946698 136.29925204 54.74694821 136.30273438 58.57446289 C136.3082166 63.47730127 136.33223686 68.37986159 136.36070633 73.2826128 C136.37933804 77.05129302 136.38453862 80.81990638 136.38607025 84.58862877 C136.38909668 86.39592698 136.3971249 88.20322402 136.41025543 90.01047707 C136.42732532 92.54080918 136.42543339 95.07046362 136.41894531 97.60083008 C136.4281601 98.34647217 136.43737488 99.09211426 136.4468689 99.86035156 C136.41125513 104.29800032 135.80740542 107.13848607 133.0625 110.6640625 C130.51772503 111.93644998 128.69913091 111.80943424 125.85009766 111.83764648 C124.21797836 111.85788124 124.21797836 111.85788124 122.55288696 111.87852478 C121.37269989 111.88896317 120.19251282 111.89940155 118.9765625 111.91015625 C116.49478811 111.94309229 114.01301736 111.97630398 111.53125 112.00976562 C107.60516861 112.05721889 103.67910227 112.10164639 99.75292969 112.14086914 C95.97314927 112.18052881 92.19367506 112.23208815 88.4140625 112.28515625 C87.23792389 112.2935704 86.06178528 112.30198456 84.8500061 112.31065369 C83.20843033 112.33561668 83.20843033 112.33561668 81.53369141 112.36108398 C80.57153717 112.37139145 79.60938293 112.38169891 78.61807251 112.39231873 C75.94883048 112.67614941 74.31128836 113.21841854 72.0625 114.6640625 C70.50475064 117.77956122 70.49769378 121.2685013 71.0625 124.6640625 C72.09104958 126.39915559 72.09104958 126.39915559 74.0625 127.6640625 C76.56978032 127.9947688 78.84387387 128.1523343 81.35546875 128.17578125 C82.06149734 128.19373245 82.76752594 128.21168365 83.49494934 128.23017883 C85.74657241 128.28429428 87.99798343 128.31817972 90.25 128.3515625 C91.77802431 128.38473469 93.30602063 128.41922427 94.83398438 128.45507812 C98.57666989 128.54002075 102.31929241 128.60682498 106.0625 128.6640625 C106.17935585 142.52867147 106.26716638 156.39320396 106.32156086 170.25820446 C106.34766617 176.69615432 106.38308252 183.13377361 106.43969727 189.5715332 C106.49398184 195.78312242 106.52391349 201.99439346 106.53688622 208.20620155 C106.54613234 210.57733482 106.56418771 212.94845047 106.59115028 215.31944847 C106.6273918 218.63807322 106.63244718 221.95537946 106.63012695 225.27416992 C106.64810333 226.25672256 106.66607971 227.23927521 106.68460083 228.25160217 C106.67772751 229.15878998 106.67085419 230.06597778 106.66377258 231.00065613 C106.66838155 231.78510196 106.67299051 232.56954779 106.67773914 233.3777647 C105.652064 237.18928879 104.33453202 238.41111262 101.0625 240.6640625 C96.79365006 241.41289331 92.56593585 241.32754331 88.24168396 241.28311157 C86.92280766 241.28935055 85.60393136 241.29558953 84.24508911 241.30201757 C80.58520485 241.31871111 76.92599857 241.30433047 73.26615179 241.28495646 C69.31843284 241.26953026 65.37080187 241.2829766 61.42308044 241.29304504 C54.58103545 241.30666711 47.73919062 241.30235037 40.89715385 241.28621292 C30.99166562 241.26314009 21.08637784 241.27045674 11.18088294 241.28574412 C-4.9071791 241.31002554 -20.99517706 241.31421864 -37.08325195 241.30371094 C-38.04623591 241.30308711 -39.00921986 241.30246329 -40.00138514 241.30182056 C-41.95023047 241.3005493 -43.89907578 241.29927506 -45.8479211 241.29799785 C-46.81400618 241.29736547 -47.78009127 241.29673309 -48.77545166 241.29608154 C-49.74230652 241.2954434 -50.70916138 241.29480525 -51.70531488 241.29414777 C-62.42992636 241.28734974 -73.15453692 241.28535093 -83.87915039 241.28515625 C-85.31868256 241.285122 -85.31868256 241.285122 -86.78729618 241.28508706 C-102.80658022 241.28515638 -118.82583995 241.29720728 -134.84511226 241.31611574 C-144.72085038 241.32706305 -154.59646087 241.32627539 -164.4721927 241.310176 C-171.24549831 241.29968455 -178.01875271 241.29949773 -184.79206181 241.30729415 C-188.69633299 241.3113692 -192.6004409 241.31050796 -196.50469208 241.29636192 C-200.08577993 241.28344391 -203.66659299 241.2845188 -207.24768244 241.29623441 C-209.14238289 241.29886225 -211.03708656 241.28675672 -212.93174559 241.27395594 C-222.77937847 241.32855645 -232.34373842 242.60436619 -240.9375 247.7265625 C-241.80375 248.23316406 -242.67 248.73976563 -243.5625 249.26171875 C-244.34625 249.72449219 -245.13 250.18726563 -245.9375 250.6640625 C-247.9175 251.6540625 -247.9175 251.6540625 -249.9375 252.6640625 C-249.9375 211.7440625 -249.9375 170.8240625 -249.9375 128.6640625 C-239.0475 128.6640625 -228.1575 128.6640625 -216.9375 128.6640625 C-216.93339111 131.06131592 -216.92928223 133.45856934 -216.92504883 135.9284668 C-216.90784672 143.85152346 -216.86333747 151.77425753 -216.80540943 159.6971159 C-216.77112739 164.50053328 -216.74602757 169.30363222 -216.74194336 174.10717773 C-216.737663 178.74347131 -216.70922233 183.37904636 -216.66406822 188.01511574 C-216.65108478 189.78328071 -216.64678855 191.55153163 -216.65134621 193.31973839 C-216.65624642 195.79817531 -216.63018882 198.27450747 -216.59692383 200.75268555 C-216.60986229 201.8478096 -216.60986229 201.8478096 -216.62306213 202.96505737 C-216.53610116 206.83318795 -216.02026399 208.5572702 -213.62284851 211.65071106 C-211.01287169 214.00742431 -211.01287169 214.00742431 -207.3125 213.7890625 C-203.88707328 212.98392751 -203.88707328 212.98392751 -202.25358582 210.58247375 C-200.61752739 206.95452542 -200.4973515 203.74948016 -200.50512695 199.84448242 C-200.48983948 198.68758911 -200.48983948 198.68758911 -200.47424316 197.50732422 C-200.44415918 194.96965223 -200.43485443 192.432358 -200.42578125 189.89453125 C-200.40893112 188.13046519 -200.39078043 186.36641111 -200.37138367 184.60237122 C-200.32391367 179.96806584 -200.29408493 175.33380905 -200.26794434 170.69934082 C-200.23812367 165.96678065 -200.1915985 161.23438784 -200.14648438 156.50195312 C-200.06048541 147.22274385 -199.99312496 137.94350009 -199.9375 128.6640625 C-177.74570278 128.45383742 -155.55406968 128.29512146 -133.36147881 128.19775295 C-123.05705357 128.1513415 -112.75324693 128.08806583 -102.44921875 127.98510742 C-93.46836377 127.895413 -84.48795674 127.83734134 -75.5066663 127.81726605 C-70.7506745 127.80553017 -65.99596422 127.77794653 -61.24038315 127.71249199 C-56.7633762 127.65137127 -52.28817746 127.63256296 -47.81079292 127.64609337 C-46.1684047 127.64361855 -44.52595567 127.62572887 -42.8839283 127.59121323 C-30.43410748 127.34236669 -30.43410748 127.34236669 -26.67677689 130.66057014 C-25.15532707 132.94021387 -24.04940959 135.16722678 -22.9375 137.6640625 C-20.84881355 139.80263924 -20.84881355 139.80263924 -18.75 141.1640625 C-18.09644531 141.628125 -17.44289063 142.0921875 -16.76953125 142.5703125 C-12.51729095 145.10896343 -8.22011114 144.85862213 -3.4296875 144.90234375 C-2.16960373 144.91445137 -2.16960373 144.91445137 -0.88406372 144.92680359 C0.89628036 144.94063373 2.67665084 144.95136067 4.45703125 144.95922852 C6.2666813 144.97071682 8.07629831 144.99111846 9.88574219 145.02075195 C12.50999825 145.06372139 15.13324693 145.07964049 17.7578125 145.08984375 C18.55502716 145.10735184 19.35224182 145.12485992 20.1736145 145.14289856 C27.08616134 145.11664998 33.02853402 143.16619805 38.40234375 138.734375 C38.92957031 138.09242188 39.45679688 137.45046875 40 136.7890625 C40.81791016 135.83386719 40.81791016 135.83386719 41.65234375 134.859375 C44.90999173 129.78791194 45.36053712 124.68422262 45.35302734 118.79443359 C45.35974457 118.02945053 45.36646179 117.26446747 45.37338257 116.4763031 C45.39228573 113.96330163 45.39628197 111.450568 45.3984375 108.9375 C45.40486771 107.18445731 45.41159624 105.4314157 45.41860962 103.67837524 C45.43056089 100.01179514 45.43429235 96.34530914 45.43310547 92.67871094 C45.43290169 87.97978539 45.46027336 83.28146068 45.49464989 78.58267784 C45.51687276 74.96586325 45.52094454 71.34919476 45.51988602 67.73231888 C45.52224626 65.99954775 45.5310936 64.26677285 45.54655075 62.53406906 C45.5661304 60.11391505 45.56040671 57.69507718 45.54833984 55.27490234 C45.55957886 54.56000137 45.57081787 53.8451004 45.58239746 53.10853577 C45.53986346 49.75434907 45.27330533 47.94804938 43.25088501 45.22354126 C40.02348599 42.92364421 37.92121279 43.04391223 34.0625 43.6640625 C31.15216824 46.42120823 30.14506613 48.08311174 29.5771637 52.07897949 C29.58336227 53.38516235 29.58956085 54.69134521 29.59594727 56.03710938 C29.59248795 57.12343407 29.59248795 57.12343407 29.58895874 58.23170471 C29.58633662 59.79767299 29.5927369 61.3636771 29.60721016 62.92958069 C29.62914761 65.41010379 29.62536444 67.8894109 29.61473083 70.36999512 C29.59309092 76.52844247 29.61043313 82.68661728 29.63623047 88.84503174 C29.65763905 94.05385874 29.65957331 99.2619045 29.63331413 104.47071838 C29.62896687 106.91128202 29.65358769 109.35048385 29.67884827 111.79089355 C29.67357658 113.2909404 29.6668535 114.79098307 29.65844727 116.29101562 C29.66655174 118.25028992 29.66655174 118.25028992 29.67481995 120.24914551 C28.90368051 124.54980105 27.47663506 126.01831748 24.0625 128.6640625 C21.32676321 129.16497471 19.22200617 129.36849104 16.49609375 129.328125 C15.42223167 129.33530045 15.42223167 129.33530045 14.32667542 129.34262085 C12.81973054 129.34601022 11.31271117 129.33687489 9.8059082 129.31591797 C7.5024016 129.28909047 5.2037483 129.31570954 2.90039062 129.34765625 C1.43228095 129.34435274 -0.03582572 129.3379477 -1.50390625 129.328125 C-2.18941055 129.33824615 -2.87491486 129.34836731 -3.58119202 129.35879517 C-6.8261111 129.2794114 -8.61141739 128.93842733 -11.11592102 126.83114624 C-13.84312348 122.0895025 -13.51156419 117.72578964 -13.48681641 112.34375 C-13.49703827 111.20013 -13.50726013 110.05651001 -13.51779175 108.87823486 C-13.54559052 105.0982978 -13.54367036 101.31908962 -13.5390625 97.5390625 C-13.54683522 94.91259489 -13.55550431 92.28612979 -13.56503296 89.65966797 C-13.58144684 84.15520764 -13.57965032 78.65095269 -13.56884766 73.14648438 C-13.55676094 66.78809373 -13.58141095 60.43058742 -13.62398779 54.07234764 C-13.66348317 47.94854358 -13.66956605 41.8251528 -13.66251755 35.70123291 C-13.6635454 33.09846925 -13.67404776 30.49569167 -13.69414139 27.89300537 C-13.71877617 24.25609869 -13.70534817 20.62124797 -13.68212891 16.984375 C-13.69741638 15.90681946 -13.71270386 14.82926392 -13.72845459 13.71905518 C-13.6283435 6.63624981 -13.6283435 6.63624981 -11.6694603 3.87961769 C-7.96387973 0.61575441 -4.83180208 0.02295237 0 0 Z " fill="#B8DBFF" transform="translate(327.9375,149.3359375)"/>
<path d="M0 0 C0.00586624 1.26898132 0.01173248 2.53796265 0.01777649 3.84539795 C0.07494447 15.79378745 0.14767506 27.7419939 0.23571491 39.69019699 C0.28047698 45.83316491 0.31972032 51.97606561 0.34643555 58.11914062 C0.37241014 64.04554157 0.41277126 69.97168465 0.46318626 75.89792633 C0.47989453 78.16095019 0.49138407 80.42401868 0.49761391 82.68709564 C0.50721181 85.8525457 0.53521995 89.01733006 0.56762695 92.18261719 C0.56619186 93.12201141 0.56475677 94.06140564 0.5632782 95.02926636 C0.61388028 100.00836228 0.61388028 100.00836228 2.39225769 104.57818604 C5.07379016 106.94961104 7.47514938 106.61740271 10.90625 106.43359375 C13.18743769 106.15107551 13.18743769 106.15107551 15 104.125 C16.3860651 99.79354656 16.74515758 95.52564985 17 91 C22.1347062 91.64313492 26.43881739 93.94463253 31.0625 96.125 C41.16937066 100.77529246 51.42437241 104.56759854 62 108 C62.67998047 108.2263916 63.35996094 108.4527832 64.06054688 108.68603516 C104.79535407 122.14561306 149.52116693 125.55469252 192 120 C193.51685169 119.81059317 195.03377609 119.62176744 196.55078125 119.43359375 C197.68902344 119.29050781 198.82726562 119.14742188 200 119 C197.83142753 121.16857247 195.65985306 123.3235544 193.4375 125.4375 C190.91868075 127.81748273 190.91868075 127.81748273 189.75985718 130.62290955 C188 133 188 133 185.05337524 133.61231995 C183.84934052 133.60691696 182.64530579 133.60151398 181.40478516 133.59594727 C180.73938217 133.6000058 180.07397919 133.60406433 179.38841248 133.60824585 C177.94464733 133.61376326 176.50080261 133.60775363 175.05711746 133.59158516 C172.76979511 133.56619235 170.48427745 133.57095229 168.1968689 133.58348083 C163.33938165 133.60424791 158.48245061 133.58454392 153.625 133.5625 C148.00251207 133.54138841 142.38060487 133.53685853 136.75812912 133.56300163 C134.50822959 133.566359 132.25944195 133.54515092 130.00967407 133.52259827 C128.62444824 133.52511045 127.23922378 133.5286714 125.85400391 133.53344727 C124.04556503 133.5241494 124.04556503 133.5241494 122.20059204 133.5146637 C117.76777342 134.18685427 115.43964058 136.284139 112.61303711 139.65307617 C112.0756189 140.464823 112.0756189 140.464823 111.52734375 141.29296875 C111.10880127 141.91461914 110.69025879 142.53626953 110.2590332 143.17675781 C109.82292725 143.84030273 109.38682129 144.50384766 108.9375 145.1875 C107.9725023 146.62446961 107.00631482 148.0606408 106.0390625 149.49609375 C105.54180664 150.23714355 105.04455078 150.97819336 104.53222656 151.74169922 C102.01541271 155.4511524 99.41104766 159.09758543 96.8125 162.75 C93.30514721 167.70977898 89.80305322 172.67249991 86.375 177.6875 C85.76398438 178.57824219 85.15296875 179.46898437 84.5234375 180.38671875 C79.96980855 188.19794379 79.87834914 197.21373495 81 206 C84.29484814 217.36443382 93.49368034 227.58757693 100.48388672 236.99755859 C104 241.78595785 104 241.78595785 104 244 C103.28530705 244.00146656 102.57061411 244.00293312 101.8342638 244.00444412 C84.39645495 244.04159172 66.95885687 244.10071123 49.52120686 244.18390274 C41.08827228 244.22361177 32.65542993 244.25604539 24.22241211 244.27099609 C16.867101 244.284055 9.5119935 244.31112694 2.15679711 244.35461307 C-1.7331564 244.37713323 -5.62285967 244.39291641 -9.51288414 244.39188385 C-13.18448629 244.39113159 -16.85553729 244.4093058 -20.52699661 244.44116783 C-22.49612352 244.45356825 -24.46534347 244.44664715 -26.43449402 244.43885803 C-38.19186609 244.57469019 -48.11680932 247.26102937 -57.9765625 253.73046875 C-60 255 -60 255 -63 256 C-63.06969739 245.98554452 -63.12291119 235.97114733 -63.15543652 225.95649815 C-63.17105184 221.30562802 -63.19221412 216.6549246 -63.22631836 212.00415039 C-63.25905987 207.51078097 -63.27688406 203.01757128 -63.28463173 198.52409172 C-63.2901488 196.81498642 -63.30092197 195.10588927 -63.31719017 193.39685249 C-63.43278161 180.74330539 -62.69108603 170.00570408 -54 160 C-44.97427711 152.07946767 -36.01095352 149.53988689 -24.20361328 149.61523438 C-23.16348587 149.6098616 -22.12335846 149.60448883 -21.05171204 149.59895325 C-18.80921402 149.58922039 -16.56667854 149.5862174 -14.32416153 149.58930969 C-10.77711338 149.59380474 -7.23055953 149.57974232 -3.68356323 149.56091309 C5.11675582 149.5179927 13.91706282 149.50685157 22.71746826 149.49468994 C30.17253326 149.48318173 37.62737045 149.45969847 45.08234024 149.41999817 C48.5806956 149.40639193 52.07874633 149.41060358 55.57711792 149.41540527 C57.71140946 149.40607023 59.84569757 149.39590283 61.97998047 149.38476562 C62.95558426 149.39091385 63.93118805 149.39706207 64.93635559 149.40339661 C65.82778763 149.39519394 66.71921967 149.38699127 67.63766479 149.37854004 C68.41226484 149.37782753 69.18686489 149.37711502 69.98493767 149.37638092 C72.56847311 148.89381846 73.42277064 148.07425732 75 146 C76.08333333 142.58333333 76.08333333 142.58333333 76 139 C74.15863826 136.58718117 72.69698174 135.34849087 70 134 C68.61925309 133.89676869 67.23376302 133.85357219 65.84921265 133.84178162 C64.97980545 133.8319928 64.11039825 133.82220398 63.21464539 133.81211853 C62.25870987 133.80636307 61.30277435 133.8006076 60.31787109 133.79467773 C59.31296127 133.78477814 58.30805145 133.77487854 57.27268982 133.76467896 C53.93962996 133.73300418 50.60655583 133.7082829 47.2734375 133.68359375 C44.96700665 133.66302939 42.66057962 133.64203306 40.35415649 133.62062073 C34.27473025 133.56534661 28.19526969 133.5159609 22.11578369 133.46777344 C15.91569962 133.41759736 9.71566556 133.361891 3.515625 133.30664062 C-8.65620731 133.19899375 -20.82808298 133.09756331 -33 133 C-33.09283563 119.22169784 -33.16383411 105.44347057 -33.20724869 91.6649189 C-33.22808951 85.26640876 -33.25634364 78.86811322 -33.30175781 72.46972656 C-33.34533977 66.29054541 -33.36916346 60.1115702 -33.37950897 53.93224716 C-33.38687812 51.57921992 -33.40126824 49.22620347 -33.42292023 46.87326431 C-33.45211756 43.56777167 -33.45594908 40.26312116 -33.45410156 36.95751953 C-33.46848267 35.99294327 -33.48286377 35.028367 -33.49768066 34.03456116 C-33.43419725 23.4814894 -29.72714061 15.79670766 -22.515625 8.203125 C-15.89799205 2.40755825 -8.70006001 -0.16415208 0 0 Z " fill="#B8DBFF" transform="translate(111,17)"/>
<path d="M0 0 C1.2637151 -0.00170885 2.5274302 -0.0034177 3.8294397 -0.00517833 C7.32535524 -0.00963852 10.82114762 -0.00166653 14.31704748 0.00837779 C18.09132904 0.01702919 21.86560388 0.01409093 25.63989258 0.01257324 C32.17521238 0.01152546 38.71049218 0.01779091 45.24580193 0.02904892 C54.69471189 0.04531542 64.14360256 0.0505131 73.59252501 0.0530249 C88.92343441 0.0574002 104.2543225 0.07070482 119.58522034 0.08963013 C134.47616977 0.1079932 149.36711342 0.12214762 164.2580719 0.13064575 C165.63530526 0.13143392 165.63530526 0.13143392 167.04036152 0.13223802 C171.64656099 0.13484812 176.2527605 0.13737553 180.85896003 0.13986182 C219.06110476 0.16058917 257.26322297 0.19636134 295.46534729 0.24050903 C295.46534729 8.49050903 295.46534729 16.74050903 295.46534729 25.24050903 C291.89119995 25.24415466 288.31705261 25.24780029 284.63459778 25.2515564 C251.87817421 25.28681413 219.12183299 25.34181853 186.36547931 25.41842999 C182.07455023 25.42844775 177.78362077 25.43829183 173.49269104 25.44802856 C172.63842446 25.44996994 171.78415787 25.45191131 170.90400442 25.45391151 C157.06187743 25.48495415 143.21976703 25.50191847 129.37761179 25.51370326 C115.18006924 25.52610311 100.98261393 25.55357806 86.78512645 25.5951221 C78.02062067 25.620291 69.25625951 25.63362385 60.49171707 25.63193861 C54.48600719 25.63190891 48.4804449 25.64648847 42.47479251 25.67267331 C39.00694842 25.68735814 35.53940702 25.69548934 32.07153702 25.68631172 C28.31537443 25.67972217 24.56010404 25.6974727 20.80403137 25.7215271 C19.70287153 25.71376668 18.60171168 25.70600626 17.46718335 25.69801068 C16.46296802 25.70945827 15.45875269 25.72090586 14.4241066 25.73270035 C13.55682536 25.73421923 12.68954413 25.73573811 11.79598165 25.73730302 C8.65792774 26.41483856 7.44521722 27.76544587 5.46534729 30.24050903 C4.83553178 33.94067518 5.11765682 35.64807561 7.02070618 38.89070129 C10.2429143 41.98791239 12.83172175 41.9511803 17.0796051 41.89993286 C18.22164902 41.91565842 18.22164902 41.91565842 19.38676453 41.93170166 C21.89774834 41.96045218 24.40735337 41.95416066 26.91847229 41.94754028 C28.66155221 41.96065542 30.40461692 41.97595908 32.1476593 41.99336243 C36.73113506 42.03324731 41.31421357 42.04340509 45.89784241 42.0473938 C50.57671689 42.05671871 55.25535733 42.09412818 59.93409729 42.12918091 C69.11116966 42.19379217 78.28806739 42.22700321 87.46534729 42.24050903 C87.5159461 48.47012881 87.55103791 54.69969584 87.57521057 60.92947388 C87.5852848 63.04993673 87.59894462 65.17038564 87.6162262 67.290802 C87.64041218 70.33396846 87.65181598 73.3769517 87.66065979 76.42019653 C87.67098236 77.37232025 87.68130493 78.32444397 87.69194031 79.30541992 C87.69209137 80.18618195 87.69224243 81.06694397 87.69239807 81.97439575 C87.69683929 82.7516098 87.70128052 83.52882385 87.70585632 84.32958984 C87.46534729 86.24050903 87.46534729 86.24050903 85.46534729 88.24050903 C80.46135439 87.85748735 75.88130833 86.55179295 71.09034729 85.11550903 C60.61677985 82.21356449 53.11785401 84.45529612 42.91847229 87.49832153 C39.56516898 88.21905414 37.67550646 88.37000948 34.46534729 87.24050903 C32.67104377 83.65190199 33.16924697 79.36654754 33.03956604 75.40457153 C32.3320233 71.50586666 31.66004717 70.55791751 28.46534729 68.24050903 C25.47426871 67.6706288 22.52948028 67.73091751 19.49269104 67.77175903 C18.6144014 67.76470947 17.73611176 67.75765991 16.83120728 67.75039673 C13.08483091 67.72101029 9.33897774 67.73741869 5.59254456 67.74978638 C-8.07187422 67.76178007 -19.53466901 67.45924545 -30.52684021 58.29910278 C-37.21502296 51.44176366 -40.80260682 42.96579746 -40.90965271 33.42800903 C-40.80322205 27.10203654 -39.85244483 22.60721979 -36.53465271 17.24050903 C-36.13375427 16.55472778 -35.73285583 15.86894653 -35.31980896 15.16238403 C-30.59099373 7.98006757 -23.04009965 2.91770785 -14.75983036 0.65103364 C-9.89544755 -0.2463998 -4.92913711 -0.0243761 0 0 Z " fill="#D0E6FF" transform="translate(118.53465270996094,406.7594909667969)"/>
<path d="M0 0 C1.30710937 -0.00644531 2.61421875 -0.01289063 3.9609375 -0.01953125 C4.63479492 -0.00905762 5.30865234 0.00141602 6.00292969 0.01220703 C8.0585154 0.03901054 10.10864433 0.01241571 12.1640625 -0.01953125 C23.18348905 0.03480517 23.18348905 0.03480517 26.9140625 2.87109375 C29.1216403 5.74094489 29.963565 7.42205003 30.4375 10.9765625 C30.63472656 12.30107422 30.63472656 12.30107422 30.8359375 13.65234375 C30.91070312 14.31621094 30.98546875 14.98007813 31.0625 15.6640625 C35.07933292 17.00300681 38.9477586 16.80842748 43.13623047 16.8059082 C44.52935455 16.81111984 44.52935455 16.81111984 45.95062256 16.81643677 C47.96896643 16.8237922 49.98731838 16.82913872 52.00567245 16.83272743 C55.19982226 16.83988889 58.3938181 16.85555263 61.58792114 16.87406921 C70.67008368 16.9265577 79.75216165 16.97453098 88.83447266 16.98999023 C94.38831418 17.00006404 99.94176818 17.02937236 105.4954567 17.07131004 C107.6125203 17.08363234 109.72963861 17.08873907 111.84673691 17.08651161 C114.80823981 17.08416222 117.76862806 17.10629752 120.72998047 17.1340332 C121.60496185 17.12743179 122.47994324 17.12083038 123.38143921 17.11402893 C127.47063929 17.17694752 129.54838838 17.33931546 133.08328247 19.57218933 C141.89395668 28.88436078 136.0625 37.10817263 136.0625 53.6640625 C106.6925 53.6640625 77.3225 53.6640625 47.0625 53.6640625 C46.4025 51.6840625 45.7425 49.7040625 45.0625 47.6640625 C43.49945474 45.18424498 43.49945474 45.18424498 41.0625 43.6640625 C37.5625 42.9140625 37.5625 42.9140625 34.0625 43.6640625 C31.15216824 46.42120823 30.14506613 48.08311174 29.5771637 52.07897949 C29.58646156 54.03825378 29.58646156 54.03825378 29.59594727 56.03710938 C29.59364105 56.76132584 29.59133484 57.4855423 29.58895874 58.23170471 C29.58633662 59.79767299 29.5927369 61.3636771 29.60721016 62.92958069 C29.62914761 65.41010379 29.62536444 67.8894109 29.61473083 70.36999512 C29.59309092 76.52844247 29.61043313 82.68661728 29.63623047 88.84503174 C29.65763905 94.05385874 29.65957331 99.2619045 29.63331413 104.47071838 C29.62896687 106.91128202 29.65358769 109.35048385 29.67884827 111.79089355 C29.67357658 113.2909404 29.6668535 114.79098307 29.65844727 116.29101562 C29.66385025 117.59719849 29.66925323 118.90338135 29.67481995 120.24914551 C28.90368051 124.54980105 27.47663506 126.01831748 24.0625 128.6640625 C21.32676321 129.16497471 19.22200617 129.36849104 16.49609375 129.328125 C15.42223167 129.33530045 15.42223167 129.33530045 14.32667542 129.34262085 C12.81973054 129.34601022 11.31271117 129.33687489 9.8059082 129.31591797 C7.5024016 129.28909047 5.2037483 129.31570954 2.90039062 129.34765625 C1.43228095 129.34435274 -0.03582572 129.3379477 -1.50390625 129.328125 C-2.18941055 129.33824615 -2.87491486 129.34836731 -3.58119202 129.35879517 C-6.8261111 129.2794114 -8.61141739 128.93842733 -11.11592102 126.83114624 C-13.84312348 122.0895025 -13.51156419 117.72578964 -13.48681641 112.34375 C-13.49703827 111.20013 -13.50726013 110.05651001 -13.51779175 108.87823486 C-13.54559052 105.0982978 -13.54367036 101.31908962 -13.5390625 97.5390625 C-13.54683522 94.91259489 -13.55550431 92.28612979 -13.56503296 89.65966797 C-13.58144684 84.15520764 -13.57965032 78.65095269 -13.56884766 73.14648438 C-13.55676094 66.78809373 -13.58141095 60.43058742 -13.62398779 54.07234764 C-13.66348317 47.94854358 -13.66956605 41.8251528 -13.66251755 35.70123291 C-13.6635454 33.09846925 -13.67404776 30.49569167 -13.69414139 27.89300537 C-13.71877617 24.25609869 -13.70534817 20.62124797 -13.68212891 16.984375 C-13.69741638 15.90681946 -13.71270386 14.82926392 -13.72845459 13.71905518 C-13.6283435 6.63624981 -13.6283435 6.63624981 -11.6694603 3.87961769 C-7.96387973 0.61575441 -4.83180208 0.02295237 0 0 Z " fill="#CFE5FF" transform="translate(327.9375,149.3359375)"/>
<path d="M0 0 C1.65956726 -0.002062 1.65956726 -0.002062 3.35266113 -0.00416565 C4.56682205 -0.00057037 5.78098297 0.0030249 7.03193665 0.00672913 C8.31009247 0.0065831 9.58824829 0.00643707 10.90513611 0.00628662 C14.41105902 0.0059994 17.9169478 0.01188407 21.42286277 0.01886058 C25.08640098 0.02510653 28.74993995 0.0256989 32.41348267 0.02688599 C39.35137831 0.02999563 46.28925821 0.03820409 53.22714692 0.04823548 C61.12549209 0.05940798 69.02383801 0.06490993 76.92218912 0.06993091 C93.17012524 0.080387 109.41804554 0.09797937 125.66596985 0.12025452 C125.65418701 0.69371109 125.64240417 1.26716766 125.63026428 1.85800171 C125.58318464 4.48312218 125.55412617 7.10815347 125.52534485 9.73353577 C125.50649231 10.63559753 125.48763977 11.5376593 125.46821594 12.46705627 C125.40321758 20.3769958 127.15801355 25.5708023 131.66596985 32.12025452 C132.34973694 33.12814026 132.34973694 33.12814026 133.0473175 34.15638733 C136.95879763 39.89928329 141.00647355 45.54012968 145.14985657 51.11781311 C148.66596985 55.90621237 148.66596985 55.90621237 148.66596985 58.12025452 C147.9512769 58.12172108 147.23658396 58.12318764 146.50023365 58.12469864 C129.0624248 58.16184624 111.62482672 58.22096574 94.1871767 58.30415726 C85.75424213 58.34386629 77.32139978 58.37629991 68.88838196 58.39125061 C61.53307085 58.40430952 54.17796335 58.43138146 46.82276696 58.47486758 C42.93281345 58.49738775 39.04311018 58.51317093 35.15308571 58.51213837 C31.48148356 58.5113861 27.81043256 58.52956031 24.13897324 58.56142235 C22.16984633 58.57382277 20.20062638 58.56690167 18.23147583 58.55911255 C6.47410376 58.69494471 -3.45083947 61.38128389 -13.31059265 67.85072327 C-15.33403015 69.12025452 -15.33403015 69.12025452 -18.33403015 70.12025452 C-18.33403015 49.00025452 -18.33403015 27.88025452 -18.33403015 6.12025452 C-6.08188115 -0.00581998 -6.08188115 -0.00581998 0 0 Z " fill="#A1CFFF" transform="translate(66.33403015136719,202.87974548339844)"/>
<path d="M0 0 C9.85875 0.28875 19.7175 0.5775 29.875 0.875 C29.875 32.225 29.875 63.575 29.875 95.875 C15.1796875 96.431875 15.1796875 96.431875 0.1875 97 C-2.87877686 97.16387207 -5.94505371 97.32774414 -9.10424805 97.49658203 C-27.78397052 98.08093613 -27.78397052 98.08093613 -33.63867188 94.21533203 C-37.8110351 90.0964856 -40.52112954 85.32380874 -43.04202271 80.07049561 C-44.45238666 77.21129636 -46.23353578 74.72603236 -48.1328125 72.171875 C-49.17418708 70.65783768 -50.21339666 69.14230799 -51.25 67.625 C-51.78625 66.85027344 -52.3225 66.07554687 -52.875 65.27734375 C-57.89935991 57.94077841 -61.71325726 52.0211711 -60.125 42.875 C-58.6473597 39.16793749 -56.44225652 36.10994039 -54.125 32.875 C-53.66335449 32.22466797 -53.20170898 31.57433594 -52.72607422 30.90429688 C-46.00047212 21.44289273 -46.00047212 21.44289273 -42.95068359 17.55322266 C-40.96214203 14.82375737 -40.96214203 14.82375737 -39.56884766 11.20849609 C-32.23565878 -4.59761191 -14.91961679 -0.61468914 0 0 Z " fill="#B5D8FF" transform="translate(268.125,166.125)"/>
<path d="M0 0 C66 0 132 0 200 0 C200 8.25 200 16.5 200 25 C134 25 68 25 0 25 C0 16.75 0 8.5 0 0 Z " fill="#CDE4FF" transform="translate(223,449)"/>
<path d="M0 0 C10.89 0 21.78 0 33 0 C33.00410889 2.39725342 33.00821777 4.79450684 33.01245117 7.2644043 C33.02965328 15.18746096 33.07416253 23.11019503 33.13209057 31.0330534 C33.16637261 35.83647078 33.19147243 40.63956972 33.19555664 45.44311523 C33.199837 50.07940881 33.22827767 54.71498386 33.27343178 59.35105324 C33.28641522 61.11921821 33.29071145 62.88746913 33.28615379 64.65567589 C33.28125358 67.13411281 33.30731118 69.61044497 33.34057617 72.08862305 C33.32763771 73.1837471 33.32763771 73.1837471 33.31443787 74.30099487 C33.40275202 78.22931673 33.88334963 79.85845031 36.41621399 82.93196106 C38.79760724 84.98620451 38.79760724 84.98620451 41 86 C41 94.58 41 103.16 41 112 C38.9375 112.103125 36.875 112.20625 34.75 112.3125 C22.99809379 113.18827146 14.119309 116.02494748 4 122 C2.02 122.99 2.02 122.99 0 124 C0 83.08 0 42.16 0 0 Z " fill="#A1CFFF" transform="translate(78,278)"/>
<path d="M0 0 C1.2637151 -0.00170885 2.5274302 -0.0034177 3.8294397 -0.00517833 C7.32535524 -0.00963852 10.82114762 -0.00166653 14.31704748 0.00837779 C18.09132904 0.01702919 21.86560388 0.01409093 25.63989258 0.01257324 C32.17521238 0.01152546 38.71049218 0.01779091 45.24580193 0.02904892 C54.69471189 0.04531542 64.14360256 0.0505131 73.59252501 0.0530249 C88.92343441 0.0574002 104.2543225 0.07070482 119.58522034 0.08963013 C134.47616977 0.1079932 149.36711342 0.12214762 164.2580719 0.13064575 C165.63530526 0.13143392 165.63530526 0.13143392 167.04036152 0.13223802 C171.64656099 0.13484812 176.2527605 0.13737553 180.85896003 0.13986182 C219.06110476 0.16058917 257.26322297 0.19636134 295.46534729 0.24050903 C295.46534729 8.49050903 295.46534729 16.74050903 295.46534729 25.24050903 C295.13534729 25.24050903 294.80534729 25.24050903 294.46534729 25.24050903 C294.46534729 19.30050903 294.46534729 13.36050903 294.46534729 7.24050903 C258.3452128 7.27682445 222.22517272 7.33348134 186.10511888 7.41842999 C181.83823247 7.42844712 177.57134568 7.43829131 173.30445862 7.44802856 C172.03029893 7.45094062 172.03029893 7.45094062 170.73039863 7.45391151 C156.98676524 7.48491005 143.24314853 7.50190617 129.49948677 7.51370326 C115.3911813 7.52612594 101.28296323 7.55365256 87.17471296 7.5951221 C78.4731818 7.62022553 69.77179566 7.63362862 61.07022778 7.63193861 C55.0985742 7.63190879 49.12706804 7.64658538 43.15547194 7.67267331 C39.71308904 7.68728243 36.27100843 7.69555418 32.82859993 7.68631172 C29.08802831 7.67966486 25.3483326 7.69761128 21.60784912 7.7215271 C20.53097011 7.71376668 19.4540911 7.70600626 18.3445794 7.69801068 C6.36447053 7.83317134 -2.78915126 11.83298678 -11.40574646 20.01785278 C-18.03198687 26.9860927 -22.47675609 36.03236833 -22.78074646 45.71707153 C-22.81361755 46.55238403 -22.84648865 47.38769653 -22.88035583 48.24832153 C-22.94182281 50.00078423 -22.99907838 51.75339945 -23.05223083 53.50613403 C-23.08639099 54.33886841 -23.12055115 55.17160278 -23.15574646 56.02957153 C-23.18080261 56.78963501 -23.20585876 57.54969849 -23.23167419 58.33279419 C-23.53465271 60.24050903 -23.53465271 60.24050903 -25.53465271 62.24050903 C-33.43466493 56.54608398 -37.47859488 49.40868253 -40.53465271 40.24050903 C-41.20223919 31.72604536 -41.08591858 24.60243125 -36.53465271 17.24050903 C-36.13375427 16.55472778 -35.73285583 15.86894653 -35.31980896 15.16238403 C-30.59099373 7.98006757 -23.04009965 2.91770785 -14.75983036 0.65103364 C-9.89544755 -0.2463998 -4.92913711 -0.0243761 0 0 Z " fill="#B2D5FF" transform="translate(118.53465270996094,406.7594909667969)"/>
<path d="M0 0 C0 20.46 0 40.92 0 62 C-9.94125 62.165 -19.8825 62.33 -30.125 62.5 C-33.25500488 62.57283203 -36.38500977 62.64566406 -39.60986328 62.72070312 C-42.09665178 62.74407253 -44.5834709 62.76445723 -47.0703125 62.78125 C-48.35671631 62.82217773 -49.64312012 62.86310547 -50.96850586 62.90527344 C-59.86496171 62.91222244 -59.86496171 62.91222244 -63.19476318 60.23608398 C-67 55.3316982 -67 55.3316982 -67 52 C-76.04349773 47.42822327 -83.41963828 45.38640216 -93.625 45.25 C-94.72457031 45.22035156 -95.82414062 45.19070312 -96.95703125 45.16015625 C-99.63809105 45.09021556 -102.31831979 45.03714771 -105 45 C-102.21123474 43.49455685 -99.65100585 42.56932793 -96.5625 41.87890625 C-65.34058986 34.52887911 -36.47660354 20.97725819 -9.21826172 4.29785156 C-8.31994629 3.74838867 -7.42163086 3.19892578 -6.49609375 2.6328125 C-5.68197021 2.1289502 -4.86784668 1.62508789 -4.02905273 1.10595703 C-2 0 -2 0 0 0 Z " fill="#B8DBFF" transform="translate(434,88)"/>
<path d="M0 0 C1.30710937 -0.00644531 2.61421875 -0.01289063 3.9609375 -0.01953125 C4.63479492 -0.00905762 5.30865234 0.00141602 6.00292969 0.01220703 C8.0585154 0.03901054 10.10864433 0.01241571 12.1640625 -0.01953125 C23.18396372 0.03480751 23.18396372 0.03480751 26.9765625 3.02734375 C29.0625 5.6640625 29.0625 5.6640625 29.4375 8.4765625 C29.251875 9.559375 29.251875 9.559375 29.0625 10.6640625 C25.29321014 12.76683763 21.72250533 13.34092142 17.5 14.00390625 C14.77986164 14.74061039 13.25156228 15.93262746 11.0625 17.6640625 C10.4025 17.6640625 9.7425 17.6640625 9.0625 17.6640625 C8.753125 18.4478125 8.44375 19.2315625 8.125 20.0390625 C7.0625 22.6640625 7.0625 22.6640625 6.0625 24.6640625 C5.95919098 26.05748415 5.9160652 27.45561731 5.90428162 28.85281372 C5.88959839 30.16954575 5.88959839 30.16954575 5.87461853 31.51287842 C5.86886307 32.47816467 5.8631076 33.44345093 5.85717773 34.43798828 C5.84232834 35.95998337 5.84232834 35.95998337 5.82717896 37.51272583 C5.79550331 40.87825153 5.77078255 44.24379137 5.74609375 47.609375 C5.72552946 49.93822606 5.70453313 52.26707334 5.68312073 54.59591675 C5.62784584 60.73452705 5.57846047 66.87317133 5.53027344 73.01184082 C5.48009792 79.27224767 5.42439127 85.53260499 5.36914062 91.79296875 C5.2614928 104.08329105 5.16006258 116.3736563 5.0625 128.6640625 C2.81415504 128.79932389 0.56347486 128.89617054 -1.6875 128.9765625 C-3.56695312 129.06357422 -3.56695312 129.06357422 -5.484375 129.15234375 C-8.9375 128.6640625 -8.9375 128.6640625 -11.35629272 126.85205078 C-13.7323497 122.06150756 -13.51110002 117.62484379 -13.48681641 112.34375 C-13.49703827 111.20013 -13.50726013 110.05651001 -13.51779175 108.87823486 C-13.54559052 105.0982978 -13.54367036 101.31908962 -13.5390625 97.5390625 C-13.54683522 94.91259489 -13.55550431 92.28612979 -13.56503296 89.65966797 C-13.58144684 84.15520764 -13.57965032 78.65095269 -13.56884766 73.14648438 C-13.55676094 66.78809373 -13.58141095 60.43058742 -13.62398779 54.07234764 C-13.66348317 47.94854358 -13.66956605 41.8251528 -13.66251755 35.70123291 C-13.6635454 33.09846925 -13.67404776 30.49569167 -13.69414139 27.89300537 C-13.71877617 24.25609869 -13.70534817 20.62124797 -13.68212891 16.984375 C-13.69741638 15.90681946 -13.71270386 14.82926392 -13.72845459 13.71905518 C-13.6283435 6.63624981 -13.6283435 6.63624981 -11.6694603 3.87961769 C-7.96387973 0.61575441 -4.83180208 0.02295237 0 0 Z " fill="#E6F1FF" transform="translate(327.9375,149.3359375)"/>
<path d="M0 0 C1.35757716 0.01867774 2.71522225 0.03289989 4.07289124 0.0428772 C7.62738844 0.08086077 11.17772547 0.1788837 14.73059082 0.28991699 C18.36343077 0.39266604 21.9969709 0.43853025 25.63085938 0.48828125 C32.74845205 0.58987407 39.85466005 0.78550385 46.97265625 0.9765625 C46.97265625 12.5265625 46.97265625 24.0765625 46.97265625 35.9765625 C19.25265625 35.9765625 -8.46734375 35.9765625 -37.02734375 35.9765625 C-35.49799335 32.1531865 -34.31864044 29.70624111 -32.015625 26.46484375 C-31.42201172 25.62373047 -30.82839844 24.78261719 -30.21679688 23.91601562 C-29.59740234 23.04912109 -28.97800781 22.18222656 -28.33984375 21.2890625 C-27.73978516 20.44150391 -27.13972656 19.59394531 -26.52148438 18.72070312 C-25.37517596 17.10158866 -24.22678103 15.48394749 -23.07543945 13.8684082 C-21.02511678 11.11678358 -21.02511678 11.11678358 -19.73200989 8.46069336 C-14.72962288 -0.35969809 -9.62709611 -0.3827552 0 0 Z " fill="#D0E6FF" transform="translate(250.02734375,167.0234375)"/>
<path d="M0 0 C2.31 0 4.62 0 7 0 C7.00586624 1.26898132 7.01173248 2.53796265 7.01777649 3.84539795 C7.07494447 15.79378745 7.14767506 27.7419939 7.23571491 39.69019699 C7.28047698 45.83316491 7.31972032 51.97606561 7.34643555 58.11914062 C7.37241014 64.04554157 7.41277126 69.97168465 7.46318626 75.89792633 C7.47989453 78.16095019 7.49138407 80.42401868 7.49761391 82.68709564 C7.50721181 85.8525457 7.53521995 89.01733006 7.56762695 92.18261719 C7.56619186 93.12201141 7.56475677 94.06140564 7.5632782 95.02926636 C7.62706363 99.97863781 7.62706363 99.97863781 9.29655457 104.56671143 C11.93218589 106.78434645 14.65281808 106.7473825 18 107 C17.01 107.33 16.02 107.66 15 108 C15 116.25 15 124.5 15 133 C1.47 133 -12.06 133 -26 133 C-26 119.47 -26 105.94 -26 92 C-14 86 -14 86 6 86 C6 57.95 6 29.9 6 1 C4.02 1 2.04 1 0 1 C0 0.67 0 0.34 0 0 Z " fill="#A2CFFF" transform="translate(104,17)"/>
<path d="M0 0 C6.93 0 13.86 0 21 0 C21 14.19 21 28.38 21 43 C12.80263158 45.34210526 12.80263158 45.34210526 9 44 C7.61305661 41.22611323 7.84809877 38.78111491 7.75 35.6875 C7.49557121 30.16856166 7.49557121 30.16856166 4.5625 25.75 C2.15481721 24.02111144 2.15481721 24.02111144 0 23 C0 15.41 0 7.82 0 0 Z " fill="#E6F1FF" transform="translate(144,450)"/>
<path d="M0 0 C0.66 0 1.32 0 2 0 C2 16.83 2 33.66 2 51 C-4.47669181 47.7616541 -8.24900348 41.04613246 -10.53125 34.2265625 C-12.71998479 23.83007222 -10.6350044 14.81074637 -4.9375 6.0625 C-3.38470642 3.82221003 -1.93044349 1.93044349 0 0 Z " fill="#87BFFF" transform="translate(59,286)"/>
</svg>
